<svg version="1.1" id="Layer_1" xmlns="http://www.w3.org/2000/svg" xmlns:xlink="http://www.w3.org/1999/xlink" x="0px" y="0px"
	 width="100%" viewBox="0 0 225 225" enable-background="new 0 0 225 225" xml:space="preserve">
<path fill="#FFFFFE" opacity="1.000000" stroke="none" 
	d="
M1.000000,84.000000 
	C1.000000,56.000004 1.000000,28.500010 1.000000,1.000011 
	C75.999977,1.000007 150.999954,1.000007 225.999954,1.000004 
	C225.999969,75.999969 225.999969,150.999939 225.999985,225.999939 
	C151.000046,225.999954 76.000092,225.999954 1.000068,225.999969 
	C1.000000,178.833328 1.000000,131.666672 1.000000,84.000000 
M171.633743,39.759838 
	C171.427368,39.494061 171.221008,39.228283 170.895538,38.267673 
	C170.121719,37.917381 169.347900,37.567089 167.887924,37.113503 
	C155.933136,31.977798 144.134796,26.427931 131.975143,21.834574 
	C121.850784,18.010059 111.072365,17.702791 100.531380,20.070551 
	C92.338783,21.910805 84.371605,24.754618 75.474197,26.997995 
	C71.596092,25.063433 68.262238,26.246746 64.732361,28.661966 
	C66.082314,29.658354 67.086723,30.399702 67.706017,31.722391 
	C65.692215,33.056179 63.711567,34.443485 61.659164,35.714970 
	C49.450951,43.278076 39.189480,52.788715 32.038086,65.382782 
	C21.056679,84.721741 15.818472,105.348457 18.855682,127.606773 
	C21.292461,145.464813 29.712397,160.638275 41.123100,174.247345 
	C59.323559,195.954254 82.364601,208.050629 110.988884,207.991867 
	C142.404633,207.927368 168.529358,195.521179 189.082291,172.020416 
	C205.817413,152.885056 211.680679,130.041092 208.265228,105.091515 
	C204.967880,81.004623 193.872803,60.594116 176.990662,42.820484 
	C175.363693,41.863869 173.736725,40.907253 171.633743,39.759838 
z"/>
<path fill="#FCB85C" opacity="1.000000" stroke="none" 
	d="
M76.304237,27.152390 
	C84.371605,24.754618 92.338783,21.910805 100.531380,20.070551 
	C111.072365,17.702791 121.850784,18.010059 131.975143,21.834574 
	C144.134796,26.427931 155.933136,31.977798 168.381424,37.449837 
	C169.588165,38.178280 170.301392,38.570396 171.014648,38.962505 
	C171.221008,39.228283 171.427368,39.494061 172.025604,40.144772 
	C173.845444,41.503716 175.273453,42.477726 176.701447,43.451736 
	C193.872803,60.594116 204.967880,81.004623 208.265228,105.091515 
	C211.680679,130.041092 205.817413,152.885056 189.082291,172.020416 
	C168.529358,195.521179 142.404633,207.927368 110.988884,207.991867 
	C82.364601,208.050629 59.323559,195.954254 41.123100,174.247345 
	C29.712397,160.638275 21.292461,145.464813 18.855682,127.606773 
	C15.818472,105.348457 21.056679,84.721741 32.038086,65.382782 
	C39.189480,52.788715 49.450951,43.278076 61.659164,35.714970 
	C63.711567,34.443485 65.692215,33.056179 68.263634,31.404110 
	C71.315582,29.774683 73.809906,28.463537 76.304237,27.152390 
M50.995201,170.006256 
	C50.995201,170.006256 50.994820,169.969177 51.036777,170.669250 
	C51.910950,171.844284 52.658466,173.144699 53.678608,174.175232 
	C65.862724,186.483688 80.691986,193.995239 97.400330,197.978287 
	C99.143227,198.393753 101.068726,198.043259 103.674057,198.143158 
	C106.949165,198.987350 110.219795,200.507248 113.500359,200.528992 
	C119.529724,200.568954 125.669991,200.268631 131.572784,199.123947 
	C140.162521,197.458176 147.241135,192.472260 154.661377,186.949387 
	C158.616531,184.625214 162.789337,182.600723 166.483673,179.917465 
	C175.486771,173.378296 182.487305,164.854248 188.604568,155.685684 
	C190.707428,152.533905 191.571747,148.555786 193.007034,144.212997 
	C194.674347,139.811035 196.341660,135.409073 198.582596,130.462311 
	C201.432190,117.745880 200.256302,105.124420 196.819336,92.789146 
	C195.456482,87.897888 192.306686,83.504524 189.879501,78.129837 
	C188.033600,70.215973 185.717758,62.511993 178.801895,57.348610 
	C175.310059,54.741623 171.602371,52.423737 167.881409,49.308556 
	C159.899887,40.586052 149.276581,36.604973 138.422760,33.187992 
	C136.157578,32.474873 133.496719,33.018562 130.270157,32.915737 
	C127.531761,31.894707 124.859879,30.608082 122.042465,29.902620 
	C113.712563,27.816864 105.332672,27.223614 96.393692,30.034595 
	C95.920387,30.354656 95.447083,30.674717 94.558716,30.999754 
	C94.558716,30.999754 94.143745,30.989996 93.319077,30.976688 
	C77.220848,34.523521 64.367615,43.515934 52.605694,55.563911 
	C51.208305,56.837158 49.898674,58.225864 48.399536,59.365238 
	C37.215847,67.865105 28.457865,77.654007 29.984436,93.094810 
	C30.114571,94.411110 29.975891,95.753975 29.386160,97.622604 
	C29.191177,99.761589 29.094872,101.914970 28.785231,104.037224 
	C26.743309,118.032387 27.775358,131.705490 33.516865,145.459290 
	C35.030094,154.512894 38.889057,162.029114 47.237598,166.692215 
	C47.988548,167.111664 48.406178,168.127853 49.258255,169.445450 
	C49.849575,169.631683 50.440891,169.817917 50.995201,170.006256 
z"/>
<path fill="#FAF9ED" opacity="1.000000" stroke="none" 
	d="
M75.889221,27.075191 
	C73.809906,28.463537 71.315582,29.774683 68.456192,31.113440 
	C67.086723,30.399702 66.082314,29.658354 64.732361,28.661966 
	C68.262238,26.246746 71.596092,25.063433 75.889221,27.075191 
z"/>
<path fill="#FBF6E7" opacity="1.000000" stroke="none" 
	d="
M176.846054,43.136108 
	C175.273453,42.477726 173.845444,41.503716 172.263611,40.240173 
	C173.736725,40.907253 175.363693,41.863869 176.846054,43.136108 
z"/>
<path fill="#FBF6E7" opacity="1.000000" stroke="none" 
	d="
M170.955078,38.615089 
	C170.301392,38.570396 169.588165,38.178280 168.724503,37.501480 
	C169.347900,37.567089 170.121719,37.917381 170.955078,38.615089 
z"/>
<path fill="#FDD35A" opacity="1.000000" stroke="none" 
	d="
M198.008972,131.007111 
	C196.341660,135.409073 194.674347,139.811035 192.696564,144.723236 
	C190.298126,147.182724 188.210129,149.131973 186.045898,150.757050 
	C185.941376,148.707977 185.203278,145.966202 185.993835,145.414352 
	C194.520523,139.462250 194.580475,130.749023 193.671341,121.977432 
	C193.322449,118.611176 192.135696,114.519173 187.002991,114.584038 
	C187.165482,111.642288 186.804703,109.101944 183.537735,110.282158 
	C182.436020,110.680153 182.086929,113.376160 181.580215,115.077431 
	C181.425735,115.596085 181.893646,116.300110 181.755966,116.978714 
	C181.341980,117.921089 181.108902,118.816376 181.185959,119.684135 
	C181.320831,121.202782 181.646149,122.704521 181.498138,124.108871 
	C174.397812,121.788017 170.461060,122.574310 166.854401,126.886208 
	C166.861023,126.920464 166.921799,126.886185 166.656616,126.945312 
	C166.220764,127.306892 166.050095,127.609344 165.888031,127.880371 
	C165.896637,127.848946 165.831802,127.842415 165.499359,127.945511 
	C164.717468,129.320114 164.268005,130.591629 163.826172,131.894257 
	C163.833817,131.925369 163.897842,131.922043 163.615692,132.143951 
	C163.292953,133.547928 163.252365,134.729996 163.184326,136.239349 
	C163.696274,137.727325 164.235672,138.887970 164.844910,140.344666 
	C165.263870,141.112427 165.613007,141.584137 165.977493,142.026276 
	C165.992844,141.996704 165.941849,142.039917 166.078430,142.363327 
	C169.607132,146.614700 174.001541,147.348801 178.978180,146.917953 
	C179.110840,148.555359 179.110840,149.925186 179.110840,151.108627 
	C181.065750,151.108627 183.577057,151.108627 186.056549,151.458496 
	C179.942444,158.236267 173.777786,164.588806 167.804031,171.116043 
	C163.056976,176.302917 158.543411,181.703476 153.926163,187.009155 
	C147.241135,192.472260 140.162521,197.458176 131.572784,199.123947 
	C125.669991,200.268631 119.529724,200.568954 113.500359,200.528992 
	C110.219795,200.507248 106.949165,198.987350 102.931938,198.043579 
	C91.482872,192.435715 80.694702,187.078064 70.098946,181.363617 
	C63.578922,177.847275 57.352867,173.785858 50.994820,169.969177 
	C50.994820,169.969177 50.995201,170.006256 50.840469,169.752014 
	C50.116692,169.287491 49.547649,169.077194 48.978607,168.866898 
	C48.406178,168.127853 47.988548,167.111664 47.237598,166.692215 
	C38.889057,162.029114 35.030094,154.512894 33.247292,144.747803 
	C33.031143,128.317719 33.382618,112.579979 29.962091,97.084503 
	C29.975891,95.753975 30.114571,94.411110 29.984436,93.094810 
	C28.457865,77.654007 37.215847,67.865105 48.399536,59.365238 
	C49.898674,58.225864 51.208305,56.837158 53.182076,55.280869 
	C68.454567,49.071587 82.408531,41.896954 94.143745,30.989996 
	C94.143745,30.989996 94.558716,30.999754 95.068161,30.978239 
	C96.050354,30.638386 96.523109,30.320047 96.995865,30.001709 
	C105.332672,27.223614 113.712563,27.816864 122.042465,29.902620 
	C124.859879,30.608082 127.531761,31.894707 131.002228,33.000984 
	C139.637314,36.796719 147.534683,40.519264 155.445602,44.212784 
	C159.615631,46.159721 163.809296,48.055984 167.992294,49.975128 
	C171.602371,52.423737 175.310059,54.741623 178.801895,57.348610 
	C185.717758,62.511993 188.033600,70.215973 189.663605,78.776939 
	C190.455170,87.588158 190.938934,95.861267 192.609253,103.887444 
	C194.487610,112.913330 198.866379,121.424088 198.008972,131.007111 
M176.107101,110.281487 
	C176.193085,110.329514 176.279068,110.377541 176.365051,110.425552 
	C176.246719,110.281105 176.128372,110.136658 175.997803,109.476433 
	C175.991882,109.304550 175.985977,109.132675 176.166412,108.515976 
	C176.375824,108.257935 176.639389,108.080223 177.725677,107.975174 
	C181.292862,107.087097 180.286514,105.072327 178.946350,102.229309 
	C179.019501,101.484917 179.092636,100.740517 179.874176,99.999031 
	C180.583801,99.998848 181.293427,99.998657 182.611908,100.296860 
	C183.839996,101.215820 185.068100,102.134781 187.129913,103.677605 
	C187.502090,101.221413 188.061356,99.792656 187.861511,98.479408 
	C186.639481,90.448875 185.792358,82.298645 183.708527,74.484795 
	C182.404617,69.595451 179.605621,64.889687 176.560593,60.781071 
	C175.263474,59.030876 171.653030,58.720432 169.024521,58.462608 
	C168.496536,58.410824 167.562912,61.526272 166.979813,63.237122 
	C166.154297,65.659241 165.241531,67.717995 161.742096,65.409111 
	C158.848679,58.190361 152.975937,54.598396 146.836960,56.292629 
	C140.555283,58.026241 136.428955,63.630768 138.150192,70.340012 
	C139.054932,73.866577 142.818512,76.659706 144.542084,80.150620 
	C139.590210,80.532051 138.110260,83.357765 138.986160,87.931938 
	C139.167023,88.876419 139.048981,89.878143 138.260223,90.949135 
	C131.014420,91.132401 135.393402,96.037758 134.517273,99.412033 
	C136.062164,102.193420 137.757294,103.635574 140.002380,100.001831 
	C140.002380,100.001831 140.029175,100.019218 140.672409,99.920967 
	C140.779266,98.947243 140.886108,97.973526 140.991318,96.165329 
	C140.998611,94.773880 141.005920,93.382439 141.721313,92.066826 
	C144.249374,93.694542 146.777420,95.322266 149.596268,97.137222 
	C151.175415,93.685684 153.339005,92.202965 156.487793,94.685577 
	C152.161285,104.530800 156.075745,109.261086 163.268570,112.978561 
	C159.311066,113.468124 156.533539,111.728615 153.749161,108.963799 
	C152.321396,107.546082 149.380402,107.153992 147.167664,107.256523 
	C146.206421,107.301071 144.970291,109.651405 144.555252,111.147614 
	C144.043503,112.992386 144.285400,115.040382 144.151031,116.997093 
	C143.967422,119.671051 143.457794,122.356972 143.603012,125.009567 
	C143.750183,127.698578 144.524246,130.353271 145.092209,133.725540 
	C145.507080,134.419144 145.771576,135.518921 146.362259,135.737610 
	C149.262344,136.811340 153.426910,139.322479 154.968170,138.236557 
	C158.537445,135.721725 153.560120,133.595520 153.657532,130.922302 
	C157.874588,127.842720 162.215958,124.914497 166.245026,121.606010 
	C167.769333,120.354332 168.572891,118.224915 169.342331,117.049545 
	C166.824371,115.048347 165.462936,113.966324 164.916595,112.835365 
	C168.267303,111.885796 171.618011,110.936226 175.480423,109.999886 
	C175.651001,110.003304 175.821594,110.006721 176.107101,110.281487 
M118.515877,145.777405 
	C118.634369,145.429779 118.513901,145.177933 117.853088,144.366730 
	C116.352776,142.467514 115.060020,140.346329 113.312057,138.711975 
	C108.636543,134.340317 102.532578,134.520004 97.697365,138.920258 
	C93.241699,142.975098 92.807800,148.985397 96.552750,154.775436 
	C99.115898,158.738297 105.390579,160.186569 110.776276,158.023972 
	C111.519302,158.028305 112.262337,158.032654 113.001945,158.789658 
	C112.972862,159.542999 112.943771,160.296341 112.047134,161.031723 
	C106.212021,161.354797 100.376900,161.677856 94.441055,162.006516 
	C92.680664,168.162323 94.106750,173.418579 99.937569,177.752197 
	C97.577164,182.117874 98.923180,184.600204 103.884003,184.982101 
	C104.849030,185.056412 105.823593,185.006912 107.097496,185.609680 
	C108.035736,186.812714 108.973976,188.015762 110.260040,189.827820 
	C113.190468,193.949921 117.304016,193.721039 121.430603,192.561447 
	C123.087547,192.095825 124.488228,190.718292 126.645103,189.523483 
	C130.666534,184.662277 130.838150,179.500854 128.441879,173.608749 
	C128.854980,172.221466 128.841461,170.376999 129.754257,169.525223 
	C133.934311,165.624634 134.894333,160.733765 135.093460,155.366562 
	C135.148788,153.874954 136.282913,152.423370 137.029709,151.558960 
	C137.359116,152.043030 137.688507,152.527115 137.753006,153.768692 
	C134.733429,160.794220 140.203812,170.643967 147.329071,171.005569 
	C153.772171,171.332550 157.810150,168.137039 161.739334,162.998566 
	C162.735382,163.000626 163.846848,163.291046 164.704651,162.947693 
	C166.814163,162.103348 170.083710,161.383408 170.579437,159.861755 
	C171.593872,156.747986 172.162750,152.621246 168.385437,150.506836 
	C156.364731,143.778061 144.141998,137.608505 129.655884,138.953415 
	C125.242599,139.363144 121.146034,143.393799 120.357574,147.999710 
	C119.719292,147.982193 119.081009,147.964691 118.265068,147.303116 
	C118.171944,146.868042 118.078812,146.432968 118.142220,146.039825 
	C118.142220,146.039825 118.303314,146.022293 118.515877,145.777405 
M58.626141,134.408356 
	C58.293186,134.155304 57.960232,133.902252 58.110218,133.203415 
	C62.788216,130.525238 64.536041,126.209122 65.047447,120.407166 
	C66.106590,118.429543 70.124626,116.739487 66.475906,114.195473 
	C63.783676,112.318344 61.795086,106.883133 56.196239,111.010338 
	C55.398479,110.820511 54.610081,110.560791 53.801407,110.452423 
	C49.223778,109.838982 43.679680,112.499413 41.872543,116.622238 
	C40.165554,120.516594 38.660061,124.657799 42.849041,128.761322 
	C42.850254,129.185104 42.851467,129.608902 42.108315,130.201096 
	C41.073975,135.236267 39.085678,140.315430 39.315182,145.292313 
	C39.490364,149.091141 41.547249,153.942993 44.431046,156.205414 
	C48.579060,159.459641 54.238243,160.787643 59.748585,163.372726 
	C62.315445,167.556427 66.254929,169.460831 71.016808,170.909058 
	C73.352318,171.831116 75.687828,172.753159 78.359711,173.808014 
	C78.684547,170.006516 78.885254,167.657806 79.405426,164.627625 
	C80.301064,162.770111 81.789490,160.972855 81.985573,159.044205 
	C82.683952,152.175034 80.439148,148.696106 74.348610,146.156113 
	C69.331604,144.063828 64.498383,145.690979 59.909042,150.253220 
	C58.949760,147.491730 57.990482,144.730225 57.899300,141.981232 
	C59.703308,141.966934 61.803364,142.521179 63.228413,141.779114 
	C64.665581,141.030746 66.365196,138.926758 66.262794,137.541397 
	C66.127907,135.716614 64.346550,134.013504 63.133049,132.029083 
	C61.566299,133.120178 60.259743,134.030090 58.626141,134.408356 
M73.193344,69.681328 
	C78.166145,75.054657 83.067947,75.788406 89.889549,71.933640 
	C91.555161,68.517891 94.310516,65.201126 94.631836,61.663292 
	C95.117935,56.311153 91.126007,52.369453 85.602226,50.686230 
	C81.166992,49.334713 75.827850,51.221889 72.912857,55.171417 
	C70.102516,58.979153 70.126411,64.338394 73.193344,69.681328 
M126.088326,91.183640 
	C127.051949,90.362267 128.968018,89.256386 128.821701,88.766563 
	C127.989777,85.981552 127.408913,82.289421 125.370293,80.851547 
	C119.012833,76.367493 113.604973,74.278465 105.717743,80.771759 
	C102.635338,78.535835 100.668541,75.035530 95.927834,74.837296 
	C88.820335,74.540100 86.802376,80.412796 82.221008,83.961685 
	C80.360840,83.066933 78.500664,82.172180 75.245186,80.606277 
	C75.566460,84.129257 75.788101,86.559769 75.339935,89.337616 
	C74.557320,91.376633 73.352501,93.359207 73.070953,95.465202 
	C72.213638,101.877869 71.482765,108.328918 71.223297,114.785950 
	C71.152420,116.549675 72.508820,119.314598 73.943787,119.941826 
	C75.525131,120.633057 77.951035,119.392128 80.647736,119.277412 
	C84.036865,122.343895 87.672264,123.702263 92.371147,122.152519 
	C99.058731,119.946884 102.180870,115.074257 101.095123,107.559258 
	C100.411125,102.824913 95.177536,98.868896 89.456680,98.778381 
	C88.297493,98.760033 87.137398,98.798798 85.997292,98.067833 
	C86.649849,93.469139 89.555321,95.432846 91.888100,96.125214 
	C98.727722,98.155174 101.407715,96.699089 103.196091,89.977959 
	C103.480492,88.909096 104.227371,87.963280 104.896667,87.788544 
	C105.389893,96.051117 110.000099,100.343063 117.888199,100.213760 
	C122.129951,100.144226 124.541145,98.602386 124.706367,93.648819 
	C124.904800,92.843239 125.103233,92.037651 126.088326,91.183640 
M63.173058,74.827629 
	C68.154388,72.198700 70.090759,67.207977 67.822693,61.558266 
	C66.329391,57.838451 62.380817,56.933865 59.458702,58.244820 
	C55.740265,59.913029 52.484718,62.916775 49.501419,65.828209 
	C46.897781,68.369125 44.948242,71.580284 42.343018,74.972816 
	C40.020954,74.536163 36.382072,76.887314 36.490753,80.811333 
	C36.541134,82.630325 39.280972,84.730301 41.253147,86.003204 
	C42.381485,86.731468 44.416759,86.054558 46.081680,86.803131 
	C46.668575,89.021561 46.946129,91.385475 47.906788,93.428116 
	C49.903004,97.672668 55.193413,99.889603 60.680691,98.983200 
	C65.412483,98.201599 68.670074,95.331749 69.509468,90.704315 
	C70.661552,84.353043 69.407539,78.662216 63.173058,74.827629 
M107.800934,65.038727 
	C110.028465,66.070084 112.171684,67.701904 114.498161,68.028564 
	C124.426758,69.422676 130.125473,61.036007 127.678833,49.707733 
	C129.134247,49.468056 130.846817,49.628170 131.985336,48.895832 
	C133.732224,47.772167 135.414932,46.226749 136.440262,44.462448 
	C136.848206,43.760479 135.661575,41.809925 134.803589,40.749100 
	C130.810043,35.811382 125.543022,33.135960 119.227104,32.596088 
	C110.072807,31.813601 100.858536,30.051699 92.866287,37.067459 
	C89.429733,40.084133 87.442390,45.845646 89.878609,48.768742 
	C93.679718,53.329506 97.759277,53.668777 102.157417,50.032318 
	C102.750755,49.541752 104.176338,50.057770 105.067276,50.895912 
	C102.927277,55.440197 104.461639,59.676235 105.366638,63.984104 
	C103.939362,65.158272 102.512093,66.332443 101.084816,67.506615 
	C102.141548,68.564049 103.198273,69.621490 104.255005,70.678925 
	C105.190132,68.903610 106.129044,67.130249 107.052643,65.348953 
	C107.120811,65.217476 107.078598,65.028763 107.800934,65.038727 
M132.524307,109.808632 
	C123.515831,107.554291 115.183426,115.258690 117.384857,123.807045 
	C118.887131,129.640503 123.427498,133.194351 129.304794,133.137054 
	C135.074921,133.080826 140.424500,128.568893 141.641113,122.732399 
	C142.438217,118.908432 138.017136,112.180450 132.524307,109.808632 
M143.628204,48.859917 
	C140.854126,47.472088 138.144302,47.549465 137.178467,50.790405 
	C136.511063,53.029995 132.527832,56.206490 137.637177,58.000748 
	C139.354935,56.852703 140.786469,55.679466 142.399750,54.867249 
	C144.976257,53.570095 145.825989,51.876896 143.628204,48.859917 
M108.003662,119.423103 
	C109.393127,119.816551 110.782593,120.209991 112.172066,120.603439 
	C112.724106,118.404915 113.887138,116.128006 113.618568,114.034767 
	C113.432030,112.580765 111.276657,111.379364 110.000900,110.065109 
	C108.999634,111.465652 107.589897,112.744583 107.125359,114.304916 
	C106.748642,115.570244 107.507614,117.173676 108.003662,119.423103 
M144.762268,178.085007 
	C142.503876,177.770325 140.183746,177.058151 138.026291,177.393250 
	C137.412354,177.488586 137.271469,180.629730 136.908722,182.398193 
	C144.423019,183.522842 144.488541,183.489288 144.762268,178.085007 
M85.364693,141.937073 
	C85.845589,140.576141 86.326485,139.215210 87.214966,136.700806 
	C84.796585,136.470932 82.804695,135.946915 80.969292,136.281448 
	C80.290390,136.405197 79.266907,138.868713 79.643631,139.705582 
	C80.528625,141.671600 81.775597,144.068085 85.364693,141.937073 
z"/>
<path fill="#ED9932" opacity="1.000000" stroke="none" 
	d="
M186.122131,151.081207 
	C188.210129,149.131973 190.298126,147.182724 192.693985,145.094330 
	C191.571747,148.555786 190.707428,152.533905 188.604568,155.685684 
	C182.487305,164.854248 175.486771,173.378296 166.483673,179.917465 
	C162.789337,182.600723 158.616531,184.625214 154.293762,186.979279 
	C158.543411,181.703476 163.056976,176.302917 167.804031,171.116043 
	C173.777786,164.588806 179.942444,158.236267 186.027252,151.403839 
	C186.029770,150.999313 186.122131,151.081207 186.122131,151.081207 
z"/>
<path fill="#ED9731" opacity="1.000000" stroke="none" 
	d="
M198.295776,130.734711 
	C198.866379,121.424088 194.487610,112.913330 192.609253,103.887444 
	C190.938934,95.861267 190.455170,87.588158 189.709106,79.154251 
	C192.306686,83.504524 195.456482,87.897888 196.819336,92.789146 
	C200.256302,105.124420 201.432190,117.745880 198.295776,130.734711 
z"/>
<path fill="#ED9A33" opacity="1.000000" stroke="none" 
	d="
M51.015800,170.319214 
	C57.352867,173.785858 63.578922,177.847275 70.098946,181.363617 
	C80.694702,187.078064 91.482872,192.435715 102.549660,197.996063 
	C101.068726,198.043259 99.143227,198.393753 97.400330,197.978287 
	C80.691986,193.995239 65.862724,186.483688 53.678608,174.175232 
	C52.658466,173.144699 51.910950,171.844284 51.015800,170.319214 
z"/>
<path fill="#ED9933" opacity="1.000000" stroke="none" 
	d="
M93.731415,30.983341 
	C82.408531,41.896954 68.454567,49.071587 53.379478,55.000053 
	C64.367615,43.515934 77.220848,34.523521 93.731415,30.983341 
z"/>
<path fill="#EE9B35" opacity="1.000000" stroke="none" 
	d="
M29.674126,97.353554 
	C33.382618,112.579979 33.031143,128.317719 32.957767,144.500565 
	C27.775358,131.705490 26.743309,118.032387 28.785231,104.037224 
	C29.094872,101.914970 29.191177,99.761589 29.674126,97.353554 
z"/>
<path fill="#EC9B33" opacity="1.000000" stroke="none" 
	d="
M167.936859,49.641842 
	C163.809296,48.055984 159.615631,46.159721 155.445602,44.212784 
	C147.534683,40.519264 139.637314,36.796719 131.376251,33.034649 
	C133.496719,33.018562 136.157578,32.474873 138.422760,33.187992 
	C149.276581,36.604973 159.899887,40.586052 167.936859,49.641842 
z"/>
<path fill="#ED9933" opacity="1.000000" stroke="none" 
	d="
M96.694778,30.018152 
	C96.523109,30.320047 96.050354,30.638386 95.275688,30.975750 
	C95.447083,30.674717 95.920387,30.354656 96.694778,30.018152 
z"/>
<path fill="#ED9A33" opacity="1.000000" stroke="none" 
	d="
M49.118431,169.156174 
	C49.547649,169.077194 50.116692,169.287491 50.858971,169.750961 
	C50.440891,169.817917 49.849575,169.631683 49.118431,169.156174 
z"/>
<path fill="#FEE272" opacity="1.000000" stroke="none" 
	d="
M136.922119,150.953415 
	C136.282913,152.423370 135.148788,153.874954 135.093460,155.366562 
	C134.894333,160.733765 133.934311,165.624634 129.754257,169.525223 
	C128.841461,170.376999 128.854980,172.221466 127.849037,173.687653 
	C119.905533,166.640991 111.322868,167.916840 106.459656,176.830933 
	C106.315880,176.825226 106.028145,176.830154 105.863144,176.579956 
	C104.787422,176.533188 103.876694,176.736618 102.595993,176.952209 
	C101.486694,177.000397 100.747360,177.036453 100.008034,177.072525 
	C94.106750,173.418579 92.680664,168.162323 94.441055,162.006516 
	C100.376900,161.677856 106.212021,161.354797 112.724762,161.308029 
	C118.847061,163.980835 121.345688,162.984070 121.948502,157.466568 
	C122.285316,154.383743 121.355202,151.162476 120.995987,148.003601 
	C121.146034,143.393799 125.242599,139.363144 129.655884,138.953415 
	C144.141998,137.608505 156.364731,143.778061 168.385437,150.506836 
	C172.162750,152.621246 171.593872,156.747986 170.579437,159.861755 
	C170.083710,161.383408 166.814163,162.103348 164.704651,162.947693 
	C163.846848,163.291046 162.735382,163.000626 161.326309,162.556915 
	C161.191025,152.501846 158.138458,148.610947 148.739014,146.526230 
	C142.645081,143.976913 137.453003,146.084503 136.922119,150.953415 
z"/>
<path fill="#FDE272" opacity="1.000000" stroke="none" 
	d="
M139.068695,90.853485 
	C139.048981,89.878143 139.167023,88.876419 138.986160,87.931938 
	C138.110260,83.357765 139.590210,80.532051 145.246643,79.928085 
	C147.385986,79.333862 148.802536,78.750473 150.258560,78.625000 
	C159.433853,77.834335 161.913620,75.242172 162.112839,66.020462 
	C165.241531,67.717995 166.154297,65.659241 166.979813,63.237122 
	C167.562912,61.526272 168.496536,58.410824 169.024521,58.462608 
	C171.653030,58.720432 175.263474,59.030876 176.560593,60.781071 
	C179.605621,64.889687 182.404617,69.595451 183.708527,74.484795 
	C185.792358,82.298645 186.639481,90.448875 187.861511,98.479408 
	C188.061356,99.792656 187.502090,101.221413 187.129913,103.677605 
	C185.068100,102.134781 183.839996,101.215820 182.305756,99.751907 
	C180.599426,96.246391 179.368668,93.181335 177.660248,90.410851 
	C177.306030,89.836456 175.178360,90.355682 173.470734,90.261765 
	C166.685959,87.449028 161.237671,88.775467 156.690994,93.970604 
	C153.339005,92.202965 151.175415,93.685684 149.596268,97.137222 
	C146.777420,95.322266 144.249374,93.694542 141.111847,91.909897 
	C140.024475,91.453140 139.546585,91.153313 139.068695,90.853485 
M172.648453,72.875298 
	C173.766357,75.545731 174.853516,78.229591 176.013000,80.881851 
	C176.782211,82.641418 177.654922,84.355736 178.481308,86.090317 
	C178.946045,85.972725 179.410782,85.855133 179.875504,85.737549 
	C180.228317,84.718994 181.050415,83.598846 180.855576,82.698860 
	C179.815689,77.895828 178.354446,73.181618 177.381500,68.367455 
	C176.844528,65.710518 175.609253,64.401611 173.035126,65.046608 
	C171.635620,65.397285 169.228043,66.840279 169.332779,67.214127 
	C169.850952,69.063629 171.055771,70.720772 172.648453,72.875298 
z"/>
<path fill="#FDE271" opacity="1.000000" stroke="none" 
	d="
M104.760429,86.960571 
	C104.227371,87.963280 103.480492,88.909096 103.196091,89.977959 
	C101.407715,96.699089 98.727722,98.155174 91.888100,96.125214 
	C89.555321,95.432846 86.649849,93.469139 85.637352,98.534912 
	C78.595772,102.463249 76.122139,108.385712 78.890053,114.294540 
	C79.056961,114.994949 79.316177,115.474609 79.645294,116.331573 
	C79.813141,117.470207 79.911095,118.231544 80.009041,118.992874 
	C77.951035,119.392128 75.525131,120.633057 73.943787,119.941826 
	C72.508820,119.314598 71.152420,116.549675 71.223297,114.785950 
	C71.482765,108.328918 72.213638,101.877869 73.070953,95.465202 
	C73.352501,93.359207 74.557320,91.376633 76.023087,89.226044 
	C78.475548,90.128258 80.244865,91.142036 82.909279,92.668686 
	C82.909279,88.881233 82.909279,86.478699 82.909279,84.076164 
	C86.802376,80.412796 88.820335,74.540100 95.927834,74.837296 
	C100.668541,75.035530 102.635338,78.535835 105.947174,81.301315 
	C105.704544,83.540771 105.232483,85.250671 104.760429,86.960571 
M99.382339,89.101067 
	C99.422508,86.488281 99.732491,83.362671 96.071236,83.417130 
	C95.036804,83.432510 93.095245,86.292252 93.210960,87.713867 
	C93.544746,91.814384 96.057030,91.906960 99.382339,89.101067 
z"/>
<path fill="#FDE272" opacity="1.000000" stroke="none" 
	d="
M105.216553,50.107689 
	C104.176338,50.057770 102.750755,49.541752 102.157417,50.032318 
	C97.759277,53.668777 93.679718,53.329506 89.878609,48.768742 
	C87.442390,45.845646 89.429733,40.084133 92.866287,37.067459 
	C100.858536,30.051699 110.072807,31.813601 119.227104,32.596088 
	C125.543022,33.135960 130.810043,35.811382 134.803589,40.749100 
	C135.661575,41.809925 136.848206,43.760479 136.440262,44.462448 
	C135.414932,46.226749 133.732224,47.772167 131.985336,48.895832 
	C130.846817,49.628170 129.134247,49.468056 127.055466,49.653809 
	C119.385689,41.754955 111.499336,41.943718 105.216553,50.107689 
M96.973404,42.545479 
	C97.124397,43.906143 97.275383,45.266811 97.497787,47.271099 
	C104.824425,43.490856 111.011360,38.561119 119.224754,39.796341 
	C119.675743,39.864162 121.011703,38.036716 120.825653,37.434307 
	C120.532341,36.484596 119.349899,35.234402 118.449440,35.152779 
	C115.492683,34.884769 112.413528,34.660435 109.528549,35.202477 
	C104.776787,36.095261 99.235367,35.890369 96.973404,42.545479 
z"/>
<path fill="#E34D26" opacity="1.000000" stroke="none" 
	d="
M105.141914,50.501801 
	C111.499336,41.943718 119.385689,41.754955 126.688553,49.819145 
	C130.125473,61.036007 124.426758,69.422676 114.498161,68.028564 
	C112.171684,67.701904 110.028465,66.070084 107.417358,64.978455 
	C107.033791,64.918182 107.082947,64.974258 107.006767,64.713196 
	C106.630112,64.278305 106.329628,64.104477 106.067253,63.946297 
	C106.105354,63.961952 106.158104,63.898670 106.158104,63.898670 
	C104.461639,59.676235 102.927277,55.440197 105.141914,50.501801 
z"/>
<path fill="#E34D25" opacity="1.000000" stroke="none" 
	d="
M156.589386,94.328094 
	C161.237671,88.775467 166.685959,87.449028 173.666107,90.519035 
	C175.894424,93.922325 177.530106,96.959221 179.165771,99.996124 
	C179.092636,100.740517 179.019501,101.484917 178.727463,102.853302 
	C177.991425,104.979149 177.474274,106.481003 176.957138,107.982857 
	C176.639389,108.080223 176.375824,108.257935 175.851257,108.851013 
	C175.255341,109.387962 175.066208,109.654831 174.968719,109.986664 
	C171.618011,110.936226 168.267303,111.885796 164.471710,112.921936 
	C164.026840,113.008507 164.120636,112.889259 164.120636,112.889259 
	C156.075745,109.261086 152.161285,104.530800 156.589386,94.328094 
z"/>
<path fill="#E54F28" opacity="1.000000" stroke="none" 
	d="
M62.822025,75.528404 
	C69.407539,78.662216 70.661552,84.353043 69.509468,90.704315 
	C68.670074,95.331749 65.412483,98.201599 60.680691,98.983200 
	C55.193413,99.889603 49.903004,97.672668 47.906788,93.428116 
	C46.946129,91.385475 46.668575,89.021561 46.225220,86.092896 
	C47.237896,83.234871 48.107033,81.087090 49.294693,78.797798 
	C53.084892,77.410385 56.556568,76.164490 60.374550,75.009552 
	C61.421246,75.243141 62.121635,75.385773 62.822025,75.528404 
z"/>
<path fill="#E44D26" opacity="1.000000" stroke="none" 
	d="
M70.946541,170.116318 
	C66.254929,169.460831 62.315445,167.556427 59.394463,162.775772 
	C59.363148,158.447128 59.685959,154.715454 60.008766,150.983765 
	C64.498383,145.690979 69.331604,144.063828 74.348610,146.156113 
	C80.439148,148.696106 82.683952,152.175034 81.985573,159.044205 
	C81.789490,160.972855 80.301064,162.770111 78.897026,164.936096 
	C75.907928,166.868469 73.427238,168.492401 70.946541,170.116318 
z"/>
<path fill="#E34D26" opacity="1.000000" stroke="none" 
	d="
M148.916489,146.823776 
	C158.138458,148.610947 161.191025,152.501846 160.877243,162.550446 
	C157.810150,168.137039 153.772171,171.332550 147.329071,171.005569 
	C140.203812,170.643967 134.733429,160.794220 138.171204,153.212646 
	C142.031769,150.712326 145.474121,148.768051 148.916489,146.823776 
z"/>
<path fill="#E54E27" opacity="1.000000" stroke="none" 
	d="
M132.907242,109.916290 
	C138.017136,112.180450 142.438217,118.908432 141.641113,122.732399 
	C140.424500,128.568893 135.074921,133.080826 129.304794,133.137054 
	C123.427498,133.194351 118.887131,129.640503 117.384857,123.807045 
	C115.183426,115.258690 123.515831,107.554291 132.907242,109.916290 
z"/>
<path fill="#E44D27" opacity="1.000000" stroke="none" 
	d="
M161.927460,65.714783 
	C161.913620,75.242172 159.433853,77.834335 150.258560,78.625000 
	C148.802536,78.750473 147.385986,79.333862 145.621155,79.744789 
	C142.818512,76.659706 139.054932,73.866577 138.150192,70.340012 
	C136.428955,63.630768 140.555283,58.026241 146.836960,56.292629 
	C152.975937,54.598396 158.848679,58.190361 161.927460,65.714783 
z"/>
<path fill="#E24B25" opacity="1.000000" stroke="none" 
	d="
M78.982361,114.073799 
	C76.122139,108.385712 78.595772,102.463249 85.627563,98.906601 
	C87.137398,98.798798 88.297493,98.760033 89.456680,98.778381 
	C95.177536,98.868896 100.411125,102.824913 101.095123,107.559258 
	C102.180870,115.074257 99.058731,119.946884 92.371147,122.152519 
	C87.672264,123.702263 84.036865,122.343895 80.328384,119.135147 
	C79.911095,118.231544 79.813141,117.470207 79.907074,116.272964 
	C79.726761,115.249298 79.354561,114.661545 78.982361,114.073799 
z"/>
<path fill="#FEE372" opacity="1.000000" stroke="none" 
	d="
M164.064178,112.946404 
	C165.462936,113.966324 166.824371,115.048347 169.342331,117.049545 
	C168.572891,118.224915 167.769333,120.354332 166.245026,121.606010 
	C162.215958,124.914497 157.874588,127.842720 152.909576,130.959534 
	C149.782333,131.672180 147.403046,132.347580 145.023758,133.022995 
	C144.524246,130.353271 143.750183,127.698578 143.603012,125.009567 
	C143.457794,122.356972 143.967422,119.671051 144.151031,116.997093 
	C144.285400,115.040382 144.043503,112.992386 144.555252,111.147614 
	C144.970291,109.651405 146.206421,107.301071 147.167664,107.256523 
	C149.380402,107.153992 152.321396,107.546082 153.749161,108.963799 
	C156.533539,111.728615 159.311066,113.468124 163.694611,112.933914 
	C164.120636,112.889259 164.026840,113.008507 164.064178,112.946404 
z"/>
<path fill="#E44C26" opacity="1.000000" stroke="none" 
	d="
M104.828552,87.374557 
	C105.232483,85.250671 105.704544,83.540771 106.265274,81.460419 
	C113.604973,74.278465 119.012833,76.367493 125.370293,80.851547 
	C127.408913,82.289421 127.989777,85.981552 128.821701,88.766563 
	C128.968018,89.256386 127.051949,90.362267 125.333710,91.167816 
	C124.461464,92.117355 124.343842,93.082718 124.226212,94.048088 
	C124.541145,98.602386 122.129951,100.144226 117.888199,100.213760 
	C110.000099,100.343063 105.389893,96.051117 104.828552,87.374557 
z"/>
<path fill="#E44D27" opacity="1.000000" stroke="none" 
	d="
M42.915482,128.131165 
	C38.660061,124.657799 40.165554,120.516594 41.872543,116.622238 
	C43.679680,112.499413 49.223778,109.838982 53.801407,110.452423 
	C54.610081,110.560791 55.398479,110.820511 56.673325,111.373108 
	C61.892216,113.072029 63.203468,117.236107 64.873360,121.104546 
	C64.536041,126.209122 62.788216,130.525238 57.513939,133.501389 
	C55.945381,133.869324 54.973103,133.939285 53.781834,133.736465 
	C51.279510,132.613419 48.996181,131.763168 46.766476,130.932861 
	C47.213684,129.175568 47.592270,127.687920 48.293179,124.933723 
	C45.972881,126.313309 44.444183,127.222237 42.915482,128.131165 
z"/>
<path fill="#E54C28" opacity="1.000000" stroke="none" 
	d="
M110.045456,157.889725 
	C105.390579,160.186569 99.115898,158.738297 96.552750,154.775436 
	C92.807800,148.985397 93.241699,142.975098 97.697365,138.920258 
	C102.532578,134.520004 108.636543,134.340317 113.312057,138.711975 
	C115.060020,140.346329 116.352776,142.467514 117.992874,144.951294 
	C118.189545,145.698013 118.246429,145.860153 118.303314,146.022293 
	C118.303314,146.022293 118.142220,146.039825 117.812538,146.218643 
	C116.652756,147.483536 115.822655,148.569611 114.126488,150.788818 
	C114.229813,151.254456 114.653587,153.164291 115.040375,155.047546 
	C115.003387,155.020950 115.076057,155.065506 114.742516,155.084198 
	C113.958115,155.757065 113.507256,156.411270 113.055664,157.030640 
	C113.054939,156.995804 113.080208,157.062805 112.743683,157.043793 
	C111.619919,157.313080 110.832687,157.601395 110.045456,157.889725 
M112.583237,153.518600 
	C112.583237,153.518600 112.473213,153.584686 112.583237,153.518600 
z"/>
<path fill="#E44E28" opacity="1.000000" stroke="none" 
	d="
M72.974556,69.010223 
	C70.126411,64.338394 70.102516,58.979153 72.912857,55.171417 
	C75.827850,51.221889 81.166992,49.334713 85.602226,50.686230 
	C91.126007,52.369453 95.117935,56.311153 94.631836,61.663292 
	C94.310516,65.201126 91.555161,68.517891 89.165947,71.950409 
	C87.497078,71.669182 86.369583,70.880592 85.636200,71.153008 
	C80.965637,72.887917 79.816933,70.700455 80.573410,66.678055 
	C77.804306,67.527924 75.389427,68.269073 72.974556,69.010223 
z"/>
<path fill="#FDE271" opacity="1.000000" stroke="none" 
	d="
M62.997543,75.178017 
	C62.121635,75.385773 61.421246,75.243141 60.303329,74.655228 
	C57.342274,71.703987 54.272022,71.148376 51.597279,73.357452 
	C50.164322,74.540932 49.814678,77.036079 48.976166,78.939308 
	C48.107033,81.087090 47.237896,83.234871 46.206230,85.696472 
	C44.416759,86.054558 42.381485,86.731468 41.253147,86.003204 
	C39.280972,84.730301 36.541134,82.630325 36.490753,80.811333 
	C36.382072,76.887314 40.020954,74.536163 42.343018,74.972816 
	C44.948242,71.580284 46.897781,68.369125 49.501419,65.828209 
	C52.484718,62.916775 55.740265,59.913029 59.458702,58.244820 
	C62.380817,56.933865 66.329391,57.838451 67.822693,61.558266 
	C70.090759,67.207977 68.154388,72.198700 62.997543,75.178017 
z"/>
<path fill="#FCE274" opacity="1.000000" stroke="none" 
	d="
M54.000824,134.009247 
	C54.973103,133.939285 55.945381,133.869324 57.272469,133.724289 
	C57.960232,133.902252 58.293186,134.155304 58.463524,134.869873 
	C57.877674,137.543839 57.454441,139.756287 57.031204,141.968735 
	C57.990482,144.730225 58.949760,147.491730 59.958904,150.618500 
	C59.685959,154.715454 59.363148,158.447128 59.146381,162.558319 
	C54.238243,160.787643 48.579060,159.459641 44.431046,156.205414 
	C41.547249,153.942993 39.490364,149.091141 39.315182,145.292313 
	C39.085678,140.315430 41.073975,135.236267 42.777721,130.296082 
	C46.351044,133.388016 49.634499,135.277924 54.000824,134.009247 
M41.146286,146.923416 
	C41.718014,148.293579 42.118042,149.775040 42.912540,151.000793 
	C43.624950,152.099899 44.633110,153.316925 45.777084,153.713181 
	C46.489357,153.959900 48.412136,152.896729 48.526207,152.210938 
	C48.735497,150.952744 48.084156,149.514679 47.657166,148.195129 
	C46.823120,145.617630 45.857864,143.082550 45.026237,140.504318 
	C44.668381,139.394897 44.508072,138.221756 44.258015,137.077576 
	C43.675224,137.051682 43.092438,137.025787 42.509647,136.999893 
	C42.020103,140.032822 41.530560,143.065735 41.146286,146.923416 
z"/>
<path fill="#E44C26" opacity="1.000000" stroke="none" 
	d="
M106.603432,176.836655 
	C111.322868,167.916840 119.905533,166.640991 127.552299,173.929718 
	C130.838150,179.500854 130.666534,184.662277 126.315788,189.312286 
	C125.570999,188.519867 125.155518,187.938629 124.740044,187.357391 
	C120.359154,190.649078 118.489532,186.521912 115.262398,183.548676 
	C113.417114,185.504318 111.664665,187.361557 109.912216,189.218796 
	C108.973976,188.015762 108.035736,186.812714 107.157288,184.976501 
	C107.012535,181.841095 106.807983,179.338867 106.603432,176.836655 
z"/>
<path fill="#E54D28" opacity="1.000000" stroke="none" 
	d="
M164.775070,140.048630 
	C164.235672,138.887970 163.696274,137.727325 163.416901,135.985504 
	C163.750580,134.243576 163.824203,133.082809 163.897842,131.922043 
	C163.897842,131.922043 163.833817,131.925369 164.212891,131.882523 
	C165.005234,130.507248 165.418518,129.174835 165.831802,127.842415 
	C165.831802,127.842415 165.896637,127.848946 166.135452,127.796036 
	C166.556778,127.457481 166.739288,127.171829 166.921799,126.886185 
	C166.921799,126.886185 166.861023,126.920464 167.273834,126.934082 
	C172.578873,126.958382 177.116638,122.721085 182.126862,125.777832 
	C181.994537,125.823921 182.262802,125.752396 182.215851,126.117165 
	C183.105682,126.994370 184.042496,127.506805 185.179031,128.303070 
	C185.395584,130.392197 185.644440,132.235031 185.360153,133.991577 
	C185.106003,135.561844 183.455688,137.290222 183.836563,138.505188 
	C184.864883,141.785324 182.946472,143.290222 180.615311,144.956512 
	C175.656219,144.062500 171.254868,142.948517 169.435059,137.129059 
	C170.364059,141.014709 169.339905,142.523071 165.941849,142.039917 
	C165.941849,142.039917 165.992844,141.996704 165.964935,141.705048 
	C165.549698,140.958450 165.162384,140.503540 164.775070,140.048630 
z"/>
<path fill="#FCDD70" opacity="1.000000" stroke="none" 
	d="
M181.000046,145.001724 
	C182.946472,143.290222 184.864883,141.785324 183.836563,138.505188 
	C183.455688,137.290222 185.106003,135.561844 185.360153,133.991577 
	C185.644440,132.235031 185.395584,130.392197 185.100281,127.990074 
	C183.968796,126.846291 183.115799,126.299347 182.262802,125.752396 
	C182.262802,125.752396 181.994537,125.823921 182.120575,125.516602 
	C182.128296,124.877304 182.009979,124.545326 181.891663,124.213341 
	C181.646149,122.704521 181.320831,121.202782 181.185959,119.684135 
	C181.108902,118.816376 181.341980,117.921089 182.103058,116.988266 
	C184.181427,116.293045 185.592148,115.647743 187.002884,115.002457 
	C192.135696,114.519173 193.322449,118.611176 193.671341,121.977432 
	C194.580475,130.749023 194.520523,139.462250 185.993835,145.414352 
	C185.203278,145.966202 185.941376,148.707977 186.045898,150.757050 
	C186.122131,151.081207 186.029770,150.999313 186.059067,151.053970 
	C183.577057,151.108627 181.065750,151.108627 179.110840,151.108627 
	C179.110840,149.925186 179.110840,148.555359 179.187119,146.739929 
	C179.842270,145.863449 180.421158,145.432587 181.000046,145.001724 
z"/>
<path fill="#FAC136" opacity="1.000000" stroke="none" 
	d="
M120.676788,148.001648 
	C121.355202,151.162476 122.285316,154.383743 121.948502,157.466568 
	C121.345688,162.984070 118.847061,163.980835 113.158531,161.317017 
	C112.943771,160.296341 112.972862,159.542999 113.034470,158.170654 
	C113.066986,157.551636 113.080208,157.062805 113.080208,157.062805 
	C113.080208,157.062805 113.054939,156.995804 113.329636,156.921890 
	C114.094902,156.253815 114.585480,155.659653 115.076050,155.065506 
	C115.076057,155.065506 115.003387,155.020950 115.369614,154.898438 
	C116.638130,152.499664 117.540436,150.223419 118.442734,147.947174 
	C119.081009,147.964691 119.719292,147.982193 120.676788,148.001648 
z"/>
<path fill="#E84C2D" opacity="1.000000" stroke="none" 
	d="
M110.086136,189.523315 
	C111.664665,187.361557 113.417114,185.504318 115.262398,183.548676 
	C118.489532,186.521912 120.359154,190.649078 124.740044,187.357391 
	C125.155518,187.938629 125.570999,188.519867 125.996002,189.428467 
	C124.488228,190.718292 123.087547,192.095825 121.430603,192.561447 
	C117.304016,193.721039 113.190468,193.949921 110.086136,189.523315 
z"/>
<path fill="#FBC436" opacity="1.000000" stroke="none" 
	d="
M57.465252,141.974976 
	C57.454441,139.756287 57.877674,137.543839 58.627045,135.135681 
	C60.259743,134.030090 61.566299,133.120178 63.133049,132.029083 
	C64.346550,134.013504 66.127907,135.716614 66.262794,137.541397 
	C66.365196,138.926758 64.665581,141.030746 63.228413,141.779114 
	C61.803364,142.521179 59.703308,141.966934 57.465252,141.974976 
z"/>
<path fill="#F8C132" opacity="1.000000" stroke="none" 
	d="
M106.459656,176.830933 
	C106.807983,179.338867 107.012535,181.841095 107.005417,184.678909 
	C105.823593,185.006912 104.849030,185.056412 103.884003,184.982101 
	C98.923180,184.600204 97.577164,182.117874 99.972801,177.412354 
	C100.747360,177.036453 101.486694,177.000397 102.980042,176.976913 
	C104.498749,176.936371 105.263451,176.883255 106.028145,176.830154 
	C106.028145,176.830154 106.315880,176.825226 106.459656,176.830933 
z"/>
<path fill="#FCC639" opacity="1.000000" stroke="none" 
	d="
M145.057983,133.374268 
	C147.403046,132.347580 149.782333,131.672180 152.563110,131.017975 
	C153.560120,133.595520 158.537445,135.721725 154.968170,138.236557 
	C153.426910,139.322479 149.262344,136.811340 146.362259,135.737610 
	C145.771576,135.518921 145.507080,134.419144 145.057983,133.374268 
z"/>
<path fill="#FCC535" opacity="1.000000" stroke="none" 
	d="
M143.960007,49.069595 
	C145.825989,51.876896 144.976257,53.570095 142.399750,54.867249 
	C140.786469,55.679466 139.354935,56.852703 137.637177,58.000748 
	C132.527832,56.206490 136.511063,53.029995 137.178467,50.790405 
	C138.144302,47.549465 140.854126,47.472088 143.960007,49.069595 
z"/>
<path fill="#FCC333" opacity="1.000000" stroke="none" 
	d="
M107.883270,119.025131 
	C107.507614,117.173676 106.748642,115.570244 107.125359,114.304916 
	C107.589897,112.744583 108.999634,111.465652 110.000900,110.065109 
	C111.276657,111.379364 113.432030,112.580765 113.618568,114.034767 
	C113.887138,116.128006 112.724106,118.404915 112.172058,120.603439 
	C110.782593,120.209991 109.393127,119.816551 107.883270,119.025131 
z"/>
<path fill="#FDC637" opacity="1.000000" stroke="none" 
	d="
M82.565140,84.018921 
	C82.909279,86.478699 82.909279,88.881233 82.909279,92.668686 
	C80.244865,91.142036 78.475548,90.128258 76.357986,89.052383 
	C75.788101,86.559769 75.566460,84.129257 75.245186,80.606277 
	C78.500664,82.172180 80.360840,83.066933 82.565140,84.018921 
z"/>
<path fill="#DF4821" opacity="1.000000" stroke="none" 
	d="
M73.083954,69.345779 
	C75.389427,68.269073 77.804306,67.527924 80.573410,66.678055 
	C79.816933,70.700455 80.965637,72.887917 85.636200,71.153008 
	C86.369583,70.880592 87.497078,71.669182 88.826752,72.023102 
	C83.067947,75.788406 78.166145,75.054657 73.083954,69.345779 
z"/>
<path fill="#FAC22E" opacity="1.000000" stroke="none" 
	d="
M138.664459,90.901306 
	C139.546585,91.153313 140.024475,91.453140 140.757797,91.871979 
	C141.005920,93.382439 140.998611,94.773880 140.731232,96.791023 
	C140.323837,98.284218 140.176498,99.151718 140.029175,100.019218 
	C140.029175,100.019218 140.002380,100.001831 139.635132,100.005272 
	C137.841827,99.672600 136.415787,99.336487 134.989746,99.000366 
	C135.393402,96.037758 131.014420,91.132401 138.664459,90.901306 
z"/>
<path fill="#DC5121" opacity="1.000000" stroke="none" 
	d="
M180.615311,144.956512 
	C180.421158,145.432587 179.842270,145.863449 179.054443,146.472336 
	C174.001541,147.348801 169.607132,146.614700 166.078430,142.363327 
	C169.339905,142.523071 170.364059,141.014709 169.435059,137.129059 
	C171.254868,142.948517 175.656219,144.062500 180.615311,144.956512 
z"/>
<path fill="#FABD39" opacity="1.000000" stroke="none" 
	d="
M64.960403,120.755859 
	C63.203468,117.236107 61.892216,113.072029 57.058136,111.394981 
	C61.795086,106.883133 63.783676,112.318344 66.475906,114.195473 
	C70.124626,116.739487 66.106590,118.429543 64.960403,120.755859 
z"/>
<path fill="#FBC434" opacity="1.000000" stroke="none" 
	d="
M144.850021,178.487152 
	C144.488541,183.489288 144.423019,183.522842 136.908722,182.398193 
	C137.271469,180.629730 137.412354,177.488586 138.026291,177.393250 
	C140.183746,177.058151 142.503876,177.770325 144.850021,178.487152 
z"/>
<path fill="#FAC73A" opacity="1.000000" stroke="none" 
	d="
M85.089180,142.194244 
	C81.775597,144.068085 80.528625,141.671600 79.643631,139.705582 
	C79.266907,138.868713 80.290390,136.405197 80.969292,136.281448 
	C82.804695,135.946915 84.796585,136.470932 87.214966,136.700806 
	C86.326485,139.215210 85.845589,140.576141 85.089180,142.194244 
z"/>
<path fill="#F8BF39" opacity="1.000000" stroke="none" 
	d="
M148.739014,146.526230 
	C145.474121,148.768051 142.031769,150.712326 138.303650,152.833893 
	C137.688507,152.527115 137.359116,152.043030 136.975922,151.256195 
	C137.453003,146.084503 142.645081,143.976913 148.739014,146.526230 
z"/>
<path fill="#FBD15F" opacity="1.000000" stroke="none" 
	d="
M179.519974,99.997574 
	C177.530106,96.959221 175.894424,93.922325 174.063385,90.628159 
	C175.178360,90.355682 177.306030,89.836456 177.660248,90.410851 
	C179.368668,93.181335 180.599426,96.246391 182.001343,99.602715 
	C181.293427,99.998657 180.583801,99.998848 179.519974,99.997574 
z"/>
<path fill="#FAC139" opacity="1.000000" stroke="none" 
	d="
M70.981674,170.512695 
	C73.427238,168.492401 75.907928,166.868469 78.737289,165.276825 
	C78.885254,167.657806 78.684547,170.006516 78.359711,173.808014 
	C75.687828,172.753159 73.352318,171.831116 70.981674,170.512695 
z"/>
<path fill="#DD471F" opacity="1.000000" stroke="none" 
	d="
M53.781834,133.736465 
	C49.634499,135.277924 46.351044,133.388016 43.149906,130.211884 
	C42.851467,129.608902 42.850254,129.185104 42.882263,128.446243 
	C44.444183,127.222237 45.972881,126.313309 48.293179,124.933723 
	C47.592270,127.687920 47.213684,129.175568 46.766476,130.932861 
	C48.996181,131.763168 51.279510,132.613419 53.781834,133.736465 
z"/>
<path fill="#FAC534" opacity="1.000000" stroke="none" 
	d="
M187.002991,114.584030 
	C185.592148,115.647743 184.181427,116.293045 182.423615,116.928787 
	C181.893646,116.300110 181.425735,115.596085 181.580215,115.077431 
	C182.086929,113.376160 182.436020,110.680153 183.537735,110.282158 
	C186.804703,109.101944 187.165482,111.642288 187.002991,114.584030 
z"/>
<path fill="#F9C637" opacity="1.000000" stroke="none" 
	d="
M107.060745,64.892426 
	C107.078598,65.028763 107.120811,65.217476 107.052643,65.348953 
	C106.129044,67.130249 105.190132,68.903610 104.255005,70.678925 
	C103.198273,69.621490 102.141548,68.564049 101.084816,67.506615 
	C102.512093,66.332443 103.939362,65.158272 105.762375,63.941387 
	C106.158104,63.898670 106.105354,63.961952 106.169624,64.184921 
	C106.516914,64.596680 106.799927,64.785469 107.082947,64.974258 
	C107.082947,64.974258 107.033791,64.918182 107.060745,64.892426 
z"/>
<path fill="#DC5322" opacity="1.000000" stroke="none" 
	d="
M181.498138,124.108871 
	C182.009979,124.545326 182.128296,124.877304 182.252899,125.470520 
	C177.116638,122.721085 172.578873,126.958382 167.267212,126.899826 
	C170.461060,122.574310 174.397812,121.788017 181.498138,124.108871 
z"/>
<path fill="#DD4D1F" opacity="1.000000" stroke="none" 
	d="
M118.353897,147.625153 
	C117.540436,150.223419 116.638130,152.499664 115.406601,154.925018 
	C114.653587,153.164291 114.229813,151.254456 114.126488,150.788818 
	C115.822655,148.569611 116.652756,147.483536 117.734268,146.197678 
	C118.078812,146.432968 118.171944,146.868042 118.353897,147.625153 
z"/>
<path fill="#FBD15F" opacity="1.000000" stroke="none" 
	d="
M177.341400,107.979019 
	C177.474274,106.481003 177.991425,104.979149 178.732666,103.227585 
	C180.286514,105.072327 181.292862,107.087097 177.341400,107.979019 
z"/>
<path fill="#FDCB44" opacity="1.000000" stroke="none" 
	d="
M134.753510,99.206200 
	C136.415787,99.336487 137.841827,99.672600 139.643280,100.018921 
	C137.757294,103.635574 136.062164,102.193420 134.753510,99.206200 
z"/>
<path fill="#DC5322" opacity="1.000000" stroke="none" 
	d="
M165.499359,127.945511 
	C165.418518,129.174835 165.005234,130.507248 164.205261,131.851410 
	C164.268005,130.591629 164.717468,129.320114 165.499359,127.945511 
z"/>
<path fill="#F86C4B" opacity="1.000000" stroke="none" 
	d="
M124.466293,93.848450 
	C124.343842,93.082718 124.461464,92.117355 124.940369,91.192032 
	C125.103233,92.037651 124.904800,92.843239 124.466293,93.848450 
z"/>
<path fill="#FDCB44" opacity="1.000000" stroke="none" 
	d="
M140.350800,99.970093 
	C140.176498,99.151718 140.323837,98.284218 140.732056,97.208260 
	C140.886108,97.973526 140.779266,98.947243 140.350800,99.970093 
z"/>
<path fill="#DC5322" opacity="1.000000" stroke="none" 
	d="
M163.615692,132.143951 
	C163.824203,133.082809 163.750580,134.243576 163.444366,135.658203 
	C163.252365,134.729996 163.292953,133.547928 163.615692,132.143951 
z"/>
<path fill="#DD4D1F" opacity="1.000000" stroke="none" 
	d="
M112.743683,157.043793 
	C113.080208,157.062805 113.066986,157.551636 113.036179,157.794312 
	C112.262337,158.032654 111.519302,158.028305 110.410866,157.956848 
	C110.832687,157.601395 111.619919,157.313080 112.743683,157.043793 
z"/>
<path fill="#DC5121" opacity="1.000000" stroke="none" 
	d="
M164.844910,140.344666 
	C165.162384,140.503540 165.549698,140.958450 165.949585,141.734619 
	C165.613007,141.584137 165.263870,141.112427 164.844910,140.344666 
z"/>
<path fill="#FBD15F" opacity="1.000000" stroke="none" 
	d="
M175.224579,109.993271 
	C175.066208,109.654831 175.255341,109.387962 175.758102,109.073425 
	C175.985977,109.132675 175.991882,109.304550 175.998901,109.738235 
	C176.000000,110.000031 175.992188,110.010147 175.992188,110.010147 
	C175.821594,110.006721 175.651001,110.003304 175.224579,109.993271 
z"/>
<path fill="#FBD15F" opacity="1.000000" stroke="none" 
	d="
M176.005005,109.996124 
	C176.128372,110.136658 176.246719,110.281105 176.365051,110.425552 
	C176.279068,110.377541 176.193085,110.329514 176.049652,110.145813 
	C175.992188,110.010147 176.000000,110.000031 176.005005,109.996124 
z"/>
<path fill="#FAC136" opacity="1.000000" stroke="none" 
	d="
M118.409592,145.899841 
	C118.246429,145.860153 118.189545,145.698013 118.143570,145.278885 
	C118.513901,145.177933 118.634369,145.429779 118.409592,145.899841 
z"/>
<path fill="#DC5322" opacity="1.000000" stroke="none" 
	d="
M166.656616,126.945312 
	C166.739288,127.171829 166.556778,127.457481 166.126831,127.827461 
	C166.050095,127.609344 166.220764,127.306892 166.656616,126.945312 
z"/>
<path fill="#FDD35A" opacity="1.000000" stroke="none" 
	d="
M105.863144,176.579956 
	C105.263451,176.883255 104.498749,176.936371 103.350014,176.964783 
	C103.876694,176.736618 104.787422,176.533188 105.863144,176.579956 
z"/>
<path fill="#FDF9A2" opacity="1.000000" stroke="none" 
	d="
M172.333466,72.660522 
	C171.055771,70.720772 169.850952,69.063629 169.332779,67.214127 
	C169.228043,66.840279 171.635620,65.397285 173.035126,65.046608 
	C175.609253,64.401611 176.844528,65.710518 177.381500,68.367455 
	C178.354446,73.181618 179.815689,77.895828 180.855576,82.698860 
	C181.050415,83.598846 180.228317,84.718994 179.875504,85.737549 
	C179.410782,85.855133 178.946045,85.972725 178.481308,86.090317 
	C177.654922,84.355736 176.782211,82.641418 176.013000,80.881851 
	C174.853516,78.229591 173.766357,75.545731 172.333466,72.660522 
z"/>
<path fill="#F8C93D" opacity="1.000000" stroke="none" 
	d="
M99.196526,89.432678 
	C96.057030,91.906960 93.544746,91.814384 93.210960,87.713867 
	C93.095245,86.292252 95.036804,83.432510 96.071236,83.417130 
	C99.732491,83.362671 99.422508,86.488281 99.196526,89.432678 
z"/>
<path fill="#FDD35A" opacity="1.000000" stroke="none" 
	d="
M78.890053,114.294540 
	C79.354561,114.661545 79.726761,115.249298 79.837173,115.895660 
	C79.316177,115.474609 79.056961,114.994949 78.890053,114.294540 
z"/>
<path fill="#FEF9A5" opacity="1.000000" stroke="none" 
	d="
M96.977798,42.139946 
	C99.235367,35.890369 104.776787,36.095261 109.528549,35.202477 
	C112.413528,34.660435 115.492683,34.884769 118.449440,35.152779 
	C119.349899,35.234402 120.532341,36.484596 120.825653,37.434307 
	C121.011703,38.036716 119.675743,39.864162 119.224754,39.796341 
	C111.011360,38.561119 104.824425,43.490856 97.497787,47.271099 
	C97.275383,45.266811 97.124397,43.906143 96.977798,42.139946 
z"/>
<path fill="#FDD35A" opacity="1.000000" stroke="none" 
	d="
M107.006767,64.713196 
	C106.799927,64.785469 106.516914,64.596680 106.131523,64.169266 
	C106.329628,64.104477 106.630112,64.278305 107.006767,64.713196 
z"/>
<path fill="#FABF3B" opacity="1.000000" stroke="none" 
	d="
M49.294689,78.797798 
	C49.814678,77.036079 50.164322,74.540932 51.597279,73.357452 
	C54.272022,71.148376 57.342274,71.703987 59.957024,74.564270 
	C56.556568,76.164490 53.084892,77.410385 49.294689,78.797798 
z"/>
<path fill="#DD4D1F" opacity="1.000000" stroke="none" 
	d="
M114.742508,155.084198 
	C114.585480,155.659653 114.094902,156.253815 113.330360,156.956726 
	C113.507256,156.411270 113.958115,155.757065 114.742508,155.084198 
z"/>
<path fill="#DD4D1F" opacity="1.000000" stroke="none" 
	d="
M112.528229,153.551636 
	C112.473213,153.584686 112.583237,153.518600 112.528229,153.551636 
z"/>
<path fill="#FDF8A4" opacity="1.000000" stroke="none" 
	d="
M41.093651,146.511047 
	C41.530560,143.065735 42.020103,140.032822 42.509647,136.999893 
	C43.092438,137.025787 43.675224,137.051682 44.258015,137.077576 
	C44.508072,138.221756 44.668381,139.394897 45.026237,140.504318 
	C45.857864,143.082550 46.823120,145.617630 47.657166,148.195129 
	C48.084156,149.514679 48.735497,150.952744 48.526207,152.210938 
	C48.412136,152.896729 46.489357,153.959900 45.777084,153.713181 
	C44.633110,153.316925 43.624950,152.099899 42.912540,151.000793 
	C42.118042,149.775040 41.718014,148.293579 41.093651,146.511047 
z"/>
<path fill="#DC5322" opacity="1.000000" stroke="none" 
	d="
M182.215851,126.117172 
	C183.115799,126.299347 183.968796,126.846291 184.900558,127.706238 
	C184.042496,127.506805 183.105682,126.994370 182.215851,126.117172 
z"/>
</svg>