<?xml version="1.0" standalone="no"?>
<!DOCTYPE svg PUBLIC "-//W3C//DTD SVG 20010904//EN"
 "http://www.w3.org/TR/2001/REC-SVG-20010904/DTD/svg10.dtd">
<svg version="1.0" xmlns="http://www.w3.org/2000/svg"
 width="100.000000pt" height="100.000000pt" viewBox="0 0 100.000000 100.000000"
 preserveAspectRatio="xMidYMid meet">

<g transform="translate(0.000000,100.000000) scale(0.100000,-0.100000)"
fill="#000000" stroke="none">
<path d="M497 645 c-4 -8 -13 -15 -22 -15 -8 0 -15 -9 -15 -20 0 -11 5 -20 11
-20 6 0 9 7 6 14 -4 10 -1 13 8 10 7 -3 16 -12 19 -20 4 -12 9 -12 25 -2 27
16 16 36 -17 30 -24 -5 -26 -4 -13 12 8 9 12 19 9 22 -3 3 -8 -2 -11 -11z"/>
<path d="M617 623 c-3 -5 5 -8 18 -8 13 0 21 3 18 8 -2 4 -10 7 -18 7 -8 0
-16 -3 -18 -7z"/>
<path d="M409 605 c8 -16 5 -22 -12 -32 -12 -7 -17 -12 -11 -13 5 0 18 6 27
13 16 11 16 14 2 32 -16 20 -16 20 -6 0z"/>
<path d="M362 594 c10 -10 20 -16 22 -13 3 3 -5 11 -17 18 -21 13 -21 12 -5
-5z"/>
<path d="M475 560 c-3 -6 -3 -20 0 -31 5 -15 4 -19 -4 -15 -6 4 -11 3 -11 -2
0 -14 45 -52 61 -52 12 0 12 2 -1 11 -12 8 -10 9 9 7 14 -2 26 -9 29 -15 2 -9
-10 -13 -42 -13 -36 0 -48 4 -56 21 -9 16 -14 18 -26 8 -18 -15 -18 -5 1 31
l15 28 -30 -15 c-32 -15 -55 -10 -46 12 2 7 -2 16 -10 19 -10 4 -14 -3 -14
-25 0 -25 5 -30 30 -35 31 -7 39 -19 18 -28 -18 -7 28 -46 53 -46 33 0 23 -44
-18 -84 -21 -20 -44 -36 -53 -37 -9 0 -4 -5 10 -12 28 -13 50 -38 44 -49 -3
-4 3 -5 12 -1 11 4 13 8 6 11 -19 6 -14 34 6 30 9 -2 17 -9 17 -17 0 -15 65
-19 118 -7 15 3 38 8 52 11 14 3 25 10 25 15 0 6 -11 15 -25 20 -14 5 -25 14
-25 20 0 6 -12 8 -27 5 -23 -4 -25 -4 -8 4 11 5 14 10 8 10 -7 1 -13 8 -13 16
0 8 -4 15 -10 15 -5 0 -10 11 -10 24 0 19 8 27 36 36 24 8 34 17 32 28 -2 10
-11 16 -21 14 -10 -2 -17 4 -17 13 0 8 -7 15 -16 15 -8 0 -13 -4 -9 -9 3 -6
-6 -6 -25 -1 -17 5 -38 6 -46 3 -8 -3 -14 -1 -14 5 0 5 8 13 18 17 16 6 16 7
0 19 -20 15 -25 31 -6 20 7 -4 8 -3 4 4 -9 15 -13 15 -21 2z m22 -117 c28 -3
66 0 84 6 40 14 52 6 13 -9 -46 -18 -135 -16 -169 4 -27 15 -27 16 -5 11 14
-4 48 -9 77 -12z m39 -75 c-2 -24 -5 -46 -5 -50 -2 -21 -30 8 -36 38 -7 41 -1
54 26 54 18 0 19 -5 15 -42z m-76 -42 c0 -2 -9 -6 -20 -9 -11 -3 -18 -1 -14 4
5 9 34 13 34 5z"/>
<path d="M527 563 c-12 -11 -7 -43 6 -40 6 1 11 -4 10 -10 -2 -7 1 -13 5 -13
19 0 20 13 2 33 -11 11 -17 24 -14 29 6 10 0 11 -9 1z"/>
<path d="M561 565 c0 -5 10 -26 22 -45 22 -36 45 -41 75 -18 16 14 16 61 0 56
-7 -3 -13 -13 -13 -24 0 -10 -6 -19 -12 -18 -30 2 -34 5 -28 14 3 6 -1 10 -9
10 -8 0 -20 8 -25 18 -6 9 -10 13 -10 7z"/>
<path d="M350 249 c0 -5 5 -7 10 -4 6 3 10 8 10 11 0 2 -4 4 -10 4 -5 0 -10
-5 -10 -11z"/>
</g>
</svg>
