<?xml version="1.0" encoding="UTF-8"?>
<svg version="1.1" xmlns="http://www.w3.org/2000/svg" width="402" height="112">
<path d="M0 0 C132.66 0 265.32 0 402 0 C402 36.96 402 73.92 402 112 C269.34 112 136.68 112 0 112 C0 75.04 0 38.08 0 0 Z " fill="#FEFEFD" transform="translate(0,0)"/>
<path d="M0 0 C11.91849239 7.82379562 19.7946723 19.46966961 22.984375 33.359375 C24.30466109 46.9239178 23.58820264 59.55682071 14.671875 70.45703125 C14.115 71.08480469 13.558125 71.71257812 12.984375 72.359375 C12.38625 73.03871094 11.788125 73.71804687 11.171875 74.41796875 C2.12758935 84.06399115 -9.41605188 89.96056046 -22.71875 90.70703125 C-37.68124733 91.15651039 -48.96305951 88.43051348 -60.4296875 78.20703125 C-70.5768045 67.72865098 -76.31637718 55.65266525 -76.33032227 41.13427734 C-76.10182084 28.34090144 -71.39901925 17.37211798 -62.796875 7.921875 C-44.30825131 -9.8464127 -21.94872504 -11.94101621 0 0 Z " fill="#FBC658" transform="translate(86.015625,13.640625)"/>
<path d="M0 0 C1.875 1.25 1.875 1.25 3 3 C3 4.32 3 5.64 3 7 C4.94999129 6.80528889 4.94999129 6.80528889 7 6 C8.28436734 4.0162233 8.28436734 4.0162233 9 2 C9.99 2 10.98 2 12 2 C11.67 3.32 11.34 4.64 11 6 C11.66 6 12.32 6 13 6 C15.69769234 6.34585799 17.55937829 6.69612296 19.8125 8.25 C21.4809522 10.70877166 21.49763411 12.08528593 21 15 C19.5 17.3125 19.5 17.3125 17 19 C14.24146096 19.33165641 11.79575714 19.18638381 9 19 C9 20.65 9 22.3 9 24 C8.01 24.495 8.01 24.495 7 25 C6.505 25.845625 6.01 26.69125 5.5 27.5625 C5.005 28.366875 4.51 29.17125 4 30 C3.34 30 2.68 30 2 30 C2 31.32 2 32.64 2 34 C2.94875 34.12375 3.8975 34.2475 4.875 34.375 C8 35 8 35 10 37 C10.375 39.875 10.375 39.875 10 43 C8 45.375 8 45.375 6 47 C12.63019476 47 18.08288952 44.32109709 23 40 C23.66 40 24.32 40 25 40 C24.67 39.01 24.34 38.02 24 37 C22.33927151 36.31867549 20.672233 35.65257873 19 35 C16.83448884 31.75173326 16.44843047 30.76905843 17 27 C18.99399631 24.26748653 20.1623973 23.16752054 23.5 22.5 C26.83414937 23.16682987 27.96241525 24.3074773 30 27 C30.6875 29.625 30.6875 29.625 31 32 C31.33 32.66 31.66 33.32 32 34 C32.99 34 33.98 34 35 34 C35 35.32 35 36.64 35 38 C33.68 38.33 32.36 38.66 31 39 C31.495 39.70125 31.99 40.4025 32.5 41.125 C34.25584708 44.49037356 34.63656938 46.26015491 34 50 C31.921875 52.2265625 31.921875 52.2265625 29 54 C25.484375 53.98828125 25.484375 53.98828125 21.75 53.3125 C20.50734375 53.10238281 19.2646875 52.89226562 17.984375 52.67578125 C15 52 15 52 14 51 C11.81360547 50.92741054 9.62499611 50.91626217 7.4375 50.9375 C6.23996094 50.94652344 5.04242188 50.95554688 3.80859375 50.96484375 C2.41833984 50.98224609 2.41833984 50.98224609 1 51 C0.505 55.95 0.505 55.95 0 61 C-3.67733219 61.91933305 -5.59899538 61.99485581 -9.25 61.5625 C-10.58804688 61.40974609 -10.58804688 61.40974609 -11.953125 61.25390625 C-12.62859375 61.17011719 -13.3040625 61.08632812 -14 61 C-14.33 62.98 -14.66 64.96 -15 67 C-14.34 67 -13.68 67 -13 67 C-13 67.66 -13 68.32 -13 69 C-9.59687262 67.94124926 -6.98646769 66.99097846 -4 65 C1.44444444 65.44444444 1.44444444 65.44444444 4 68 C4.4375 71.4375 4.4375 71.4375 4 75 C1.62620356 77.45292298 -0.18653876 77.94535528 -3.55859375 78.171875 C-6.04762432 78.18599716 -8.51469436 78.13029758 -11 78 C-11.33 78.66 -11.66 79.32 -12 80 C-19.56147318 76.31484383 -26.96678328 72.64192304 -34 68 C-33.34 66.35 -32.68 64.7 -32 63 C-32.33 62.67 -32.66 62.34 -33 62 C-33.4556962 56.75949367 -33.4556962 56.75949367 -31.875 54.125 C-29.19831979 52.51899187 -27.06891054 52.80819309 -24 53 C-23.01 53 -22.02 53 -21 53 C-20.505 52.505 -20.505 52.505 -20 52 C-20.66 51.67 -21.32 51.34 -22 51 C-21.44271087 47.65626525 -20.64826111 44.96687001 -19 42 C-19.66 41.278125 -20.32 40.55625 -21 39.8125 C-23 37 -23 37 -23.5 34.5 C-22.77972028 30.89860141 -21.80788325 29.39697351 -19 27 C-15.87808996 26.57013287 -13.17498985 26.76654486 -10 27 C-9.67 23.37 -9.34 19.74 -9 16 C-8.01 16 -7.02 16 -6 16 C-6.495 14.96875 -6.99 13.9375 -7.5 12.875 C-8.95720747 9.44709291 -9.51246331 6.75806426 -9 3 C-6.79086995 -0.68188342 -4.01844539 -0.50230567 0 0 Z " fill="#FBD056" transform="translate(64,19)"/>
<path d="M0 0 C11.96615993 7.85508658 19.70382365 19.45465275 22.984375 33.359375 C23.25 37.1484375 23.25 37.1484375 23.234375 40.984375 C23.24210937 42.89089844 23.24210937 42.89089844 23.25 44.8359375 C22.99723823 48.18874798 22.55807511 50.41002547 20.984375 53.359375 C18.359375 55.171875 18.359375 55.171875 15.984375 56.359375 C16.314375 55.369375 16.644375 54.379375 16.984375 53.359375 C17.47383706 48.07318473 16.74151329 44.26916992 15.046875 39.234375 C13.03460689 33.20460659 12.47772391 27.69116243 12.35546875 21.35546875 C11.94740551 18.06089498 11.09905608 16.83304704 8.984375 14.359375 C8.984375 13.699375 8.984375 13.039375 8.984375 12.359375 C6.62519174 11.13259971 4.25516307 10.05031098 1.8046875 9.01171875 C-0.75115412 7.92273113 -3.26780084 6.77836996 -5.76953125 5.5703125 C-6.39666016 5.26867188 -7.02378906 4.96703125 -7.66992188 4.65625 C-8.94829348 4.03865389 -10.22433025 3.41620273 -11.49804688 2.7890625 C-19.14954987 -0.86726849 -27.37432612 -1.94344574 -35.578125 0.359375 C-36.3825 0.689375 -37.186875 1.019375 -38.015625 1.359375 C-38.43309108 4.23302291 -38.43309108 4.23302291 -38.015625 7.359375 C-35.62505558 9.2947898 -35.62505558 9.2947898 -33.015625 10.359375 C-33.015625 9.699375 -33.015625 9.039375 -33.015625 8.359375 C-32.355625 8.359375 -31.695625 8.359375 -31.015625 8.359375 C-29.91716782 12.67997323 -28.83749761 16.97605443 -28.015625 21.359375 C-29.005625 21.359375 -29.995625 21.359375 -31.015625 21.359375 C-31.345625 22.019375 -31.675625 22.679375 -32.015625 23.359375 C-34.325625 22.699375 -36.635625 22.039375 -39.015625 21.359375 C-39.20125 22.29910156 -39.20125 22.29910156 -39.390625 23.2578125 C-40.04460255 25.84919855 -40.70910309 28.0222962 -42.015625 30.359375 C-44.0656387 31.3256235 -45.83611266 31.59342857 -48.07421875 31.8984375 C-51.18724071 32.63754533 -52.37618145 34.76358938 -54.015625 37.359375 C-53.520625 37.895625 -53.025625 38.431875 -52.515625 38.984375 C-50.56181787 42.07790296 -50.50043809 43.75306666 -51.015625 47.359375 C-52.640625 50.234375 -52.640625 50.234375 -55.015625 52.359375 C-58.015625 52.921875 -58.015625 52.921875 -61.015625 52.359375 C-64.06452427 50.05209987 -65.47300689 48.15770175 -66.015625 44.359375 C-66.675625 44.359375 -67.335625 44.359375 -68.015625 44.359375 C-67.685625 50.959375 -67.355625 57.559375 -67.015625 64.359375 C-66.355625 64.359375 -65.695625 64.359375 -65.015625 64.359375 C-62.390625 66.671875 -62.390625 66.671875 -60.015625 69.359375 C-60.015625 70.349375 -60.015625 71.339375 -60.015625 72.359375 C-61.500625 73.349375 -61.500625 73.349375 -63.015625 74.359375 C-73.03536462 63.86250492 -76.54236702 53.00627415 -76.2890625 38.82421875 C-75.72918739 25.8057367 -69.68113388 14.537916 -60.390625 5.609375 C-41.79699475 -10.20230752 -20.88861775 -11.36427391 0 0 Z " fill="#FAC158" transform="translate(86.015625,13.640625)"/>
<path d="M0 0 C0.67675781 0.05800781 1.35351562 0.11601562 2.05078125 0.17578125 C8.87445697 1.24238216 14.60709314 4.79311712 20.546875 8.125 C23.82919341 9.99796207 23.82919341 9.99796207 26.78515625 11.09765625 C31.00560014 12.81709635 33.53126413 16.2968962 36 20 C36.19993052 22.1192635 36.31284056 24.24723446 36.375 26.375 C36.72320515 32.73467138 38.10903854 38.06280499 40.14453125 44.06640625 C41.26441126 47.90672536 41.31098935 51.03488575 41 55 C41.33 54.67 41.66 54.34 42 54 C42.66 53.67 43.32 53.34 44 53 C44.66 52.01 45.32 51.02 46 50 C45.35353512 58.88889215 42.16357293 65.80788056 37 73 C36.01 71.68 35.02 70.36 34 69 C34.495 68.4225 34.99 67.845 35.5 67.25 C37.36980013 64.89599371 37.36980013 64.89599371 37 61 C36.38511719 61.68707031 35.77023438 62.37414062 35.13671875 63.08203125 C34.32847656 63.98308594 33.52023438 64.88414063 32.6875 65.8125 C31.88699219 66.70582031 31.08648437 67.59914063 30.26171875 68.51953125 C29.14216797 69.74736328 29.14216797 69.74736328 28 71 C27.47019531 71.60199219 26.94039062 72.20398438 26.39453125 72.82421875 C25 74 25 74 22 74 C20.92922625 70.78767875 21 68.36062193 21 65 C20.67 64.01 20.34 63.02 20 62 C18.37585622 61.80522261 16.75063577 61.61940542 15.125 61.4375 C14.22007813 61.33308594 13.31515625 61.22867188 12.3828125 61.12109375 C9.98346943 60.80325148 9.98346943 60.80325148 8 62 C7.34676114 64.28239894 7.34676114 64.28239894 6.9375 66.9375 C6.08609272 71.82781457 6.08609272 71.82781457 5 74 C3.7625 73.773125 2.525 73.54625 1.25 73.3125 C-2.17135406 72.82166918 -2.17135406 72.82166918 -5.1875 74.4375 C-5.785625 74.953125 -6.38375 75.46875 -7 76 C-9.75 76.1875 -9.75 76.1875 -12 76 C-12 75.34 -12 74.68 -12 74 C-12.66 74 -13.32 74 -14 74 C-14.33 73.01 -14.66 72.02 -15 71 C-14.34 69.68 -13.68 68.36 -13 67 C-8.71 67.33 -4.42 67.66 0 68 C0.2165625 65.5559375 0.2165625 65.5559375 0.4375 63.0625 C0.875 58.125 0.875 58.125 2 57 C9.01494591 56.5628367 15.2992352 56.76641173 22 59 C25.72830852 59.8363886 28.87391005 60.47858823 32.5 58.9375 C34.2276362 57.02841879 34.2276362 57.02841879 34.4375 54.1875 C33.94614667 50.60763999 32.78369386 48.12146426 31 45 C32.65 45 34.3 45 36 45 C36 43.68 36 42.36 36 41 C34.35 40.67 32.7 40.34 31 40 C30.71125 38.88625 30.4225 37.7725 30.125 36.625 C29.30758671 32.99708908 29.30758671 32.99708908 27 31 C24.20155166 30.64122457 22.596692 30.66187453 20.125 32.0625 C18.7137078 34.13119499 18.7137078 34.13119499 18.9375 37.5 C19.66027034 41.2520153 19.66027034 41.2520153 23.0625 42.9375 C24.5165625 43.4634375 24.5165625 43.4634375 26 44 C26 44.99 26 45.98 26 47 C20.55665436 51.63263459 14.29322624 55 7 55 C6.67 54.34 6.34 53.68 6 53 C7.485 52.505 7.485 52.505 9 52 C10.35439668 49.29120665 10.06501451 46.99066732 10 44 C7.69 43.01 5.38 42.02 3 41 C3 39.68 3 38.36 3 37 C3.99 36.34 4.98 35.68 6 35 C7.19232613 32.94996045 7.19232613 32.94996045 8 31 C8.66 31 9.32 31 10 31 C10 29.35 10 27.7 10 26 C13.3 25.67 16.6 25.34 20 25 C20.33 22.36 20.66 19.72 21 17 C19.36290685 15.31135412 19.36290685 15.31135412 17 14 C13.80764728 14.22573891 13.80764728 14.22573891 11 15 C10.67 14.34 10.34 13.68 10 13 C10.66 12.67 11.32 12.34 12 12 C12.33 11.01 12.66 10.02 13 9 C10.75928906 10.00445663 9.12245015 10.87754985 7.375 12.625 C6.694375 13.305625 6.694375 13.305625 6 14 C5.34 14 4.68 14 4 14 C3.5359375 12.7934375 3.5359375 12.7934375 3.0625 11.5625 C2.23664655 9.10919595 2.23664655 9.10919595 1 8 C-1.95817107 7.74994614 -1.95817107 7.74994614 -5 8 C-5.66 8.66 -6.32 9.32 -7 10 C-7.99 10 -8.98 10 -10 10 C-10 10.66 -10 11.32 -10 12 C-12.86724686 11.42655063 -13.8614515 11.1385485 -16 9 C-16 6.0625 -16 6.0625 -15 3 C-10.27212761 -0.54590429 -5.64530241 -0.50117425 0 0 Z " fill="#FCD863" transform="translate(63,12)"/>
<path d="M0 0 C2.9375 0.375 2.9375 0.375 4.9375 2.375 C5.27620968 8.69758065 5.27620968 8.69758065 3.9375 11.375 C0.9675 11.375 -2.0025 11.375 -5.0625 11.375 C-5.7225 12.695 -6.3825 14.015 -7.0625 15.375 C-7.3925 15.705 -7.7225 16.035 -8.0625 16.375 C-7.71754062 20.94571175 -7.20590842 23.95825171 -4.0625 27.375 C-5.3825 30.015 -6.7025 32.655 -8.0625 35.375 C-6.5775 35.87 -6.5775 35.87 -5.0625 36.375 C-6.3825 37.365 -7.7025 38.355 -9.0625 39.375 C-9.5575 38.88 -9.5575 38.88 -10.0625 38.375 C-13.02067107 38.12494614 -13.02067107 38.12494614 -16.0625 38.375 C-18.38895936 40.25052269 -18.38895936 40.25052269 -18.1875 43.3125 C-18.14625 44.323125 -18.105 45.33375 -18.0625 46.375 C-18.0625 47.365 -18.0625 48.355 -18.0625 49.375 C-19.0525 50.035 -20.0425 50.695 -21.0625 51.375 C-22.40147583 50.42456626 -23.73355427 49.46440853 -25.0625 48.5 C-25.805 47.96632812 -26.5475 47.43265625 -27.3125 46.8828125 C-27.89 46.38523438 -28.4675 45.88765625 -29.0625 45.375 C-29.0625 44.715 -29.0625 44.055 -29.0625 43.375 C-29.7225 43.375 -30.3825 43.375 -31.0625 43.375 C-32.2107685 41.078463 -32.17811175 39.79186833 -32.16015625 37.2421875 C-32.15693359 36.43652344 -32.15371094 35.63085938 -32.15039062 34.80078125 C-32.14201172 33.95902344 -32.13363281 33.11726563 -32.125 32.25 C-32.12048828 31.40050781 -32.11597656 30.55101563 -32.11132812 29.67578125 C-32.09952874 27.57549091 -32.08159306 25.4752367 -32.0625 23.375 C-31.0725 23.045 -30.0825 22.715 -29.0625 22.375 C-28.4025 25.015 -27.7425 27.655 -27.0625 30.375 C-21.64788805 30.98420877 -21.64788805 30.98420877 -17.0625 28.75 C-15.77957822 25.70306078 -15.65254088 23.65467299 -16.0625 20.375 C-17.48227909 18.14756213 -17.48227909 18.14756213 -19.0625 16.375 C-19.0625 15.715 -19.0625 15.055 -19.0625 14.375 C-18.0725 14.375 -17.0825 14.375 -16.0625 14.375 C-15.77375 13.735625 -15.485 13.09625 -15.1875 12.4375 C-14.0625 10.375 -14.0625 10.375 -12.0625 9.375 C-10.06289988 9.335008 -8.06202758 9.33153201 -6.0625 9.375 C-6.124375 8.6325 -6.18625 7.89 -6.25 7.125 C-5.93695167 2.53362443 -4.65720207 0.57026964 0 0 Z " fill="#FDD359" transform="translate(50.0625,34.625)"/>
<path d="M0 0 C0.66 0.33 1.32 0.66 2 1 C2 1.66 2 2.32 2 3 C1.34 3 0.68 3 0 3 C0 4.98 0 6.96 0 9 C3.29421305 8.63397633 4.0731379 7.91916338 6.375 5.375 C9 3 9 3 12.1875 3.0625 C15 4 15 4 17 6 C17.51756852 10.65811669 16.72721496 13.22385621 14 17 C13.34 17.66 12.68 18.32 12 19 C12.495 19.53625 12.99 20.0725 13.5 20.625 C15.45380713 23.71852796 15.51518691 25.39369166 15 29 C13.375 31.875 13.375 31.875 11 34 C8 34.5625 8 34.5625 5 34 C1.95110073 31.69272487 0.54261811 29.79832675 0 26 C-0.66 26 -1.32 26 -2 26 C-5.51812612 9.1946654 -5.51812612 9.1946654 -3.1015625 4.109375 C-2 2.4375 -2 2.4375 0 0 Z " fill="#FCD158" transform="translate(20,32)"/>
<path d="M0 0 C3.33414937 0.66682987 4.46241525 1.8074773 6.5 4.5 C7.1875 7.125 7.1875 7.125 7.5 9.5 C7.83 10.16 8.16 10.82 8.5 11.5 C9.49 11.5 10.48 11.5 11.5 11.5 C11.5 12.82 11.5 14.14 11.5 15.5 C10.18 15.83 8.86 16.16 7.5 16.5 C8.2425 17.551875 8.2425 17.551875 9 18.625 C10.75584708 21.99037356 11.13656938 23.76015491 10.5 27.5 C8.4140625 29.71484375 8.4140625 29.71484375 5.5 31.5 C2.0546875 31.59375 2.0546875 31.59375 -1.625 31 C-2.84445313 30.8246875 -4.06390625 30.649375 -5.3203125 30.46875 C-8.5 29.5 -8.5 29.5 -10.4921875 27.59375 C-11.5 25.5 -11.5 25.5 -10.5 22.5 C-8.17328146 21.81060191 -5.83932406 21.14533078 -3.5 20.5 C-1.72722741 18.97992158 -1.72722741 18.97992158 -0.5 17.5 C0.16 17.5 0.82 17.5 1.5 17.5 C1.17 16.51 0.84 15.52 0.5 14.5 C-1.16072849 13.81867549 -2.827767 13.15257873 -4.5 12.5 C-6.66551116 9.25173326 -7.05156953 8.26905843 -6.5 4.5 C-4.50600369 1.76748653 -3.3376027 0.66752054 0 0 Z " fill="#FBD258" transform="translate(87.5,41.5)"/>
<path d="M0 0 C1.98 0 3.96 0 6 0 C7.65 3.3 9.3 6.6 11 10 C12.65 6.7 14.3 3.4 16 0 C18.31 0 20.62 0 23 0 C23 3.9373832 22.77448053 7.82567019 22.5 11.75 C22.45230469 12.44738281 22.40460938 13.14476562 22.35546875 13.86328125 C22.23818637 15.57560395 22.11925676 17.28781368 22 19 C22.66 19 23.32 19 24 19 C24 20.32 24 21.64 24 23 C20.7 23 17.4 23 14 23 C14 21.68 14 20.36 14 19 C15.32 19 16.64 19 18 19 C17.67 16.03 17.34 13.06 17 10 C15.68 12.64 14.36 15.28 13 18 C11.68 18 10.36 18 9 18 C8.01 15.69 7.02 13.38 6 11 C5.67 13.64 5.34 16.28 5 19 C6.32 19.33 7.64 19.66 9 20 C8.67 20.99 8.34 21.98 8 23 C5.03 23 2.06 23 -1 23 C-1 21.68 -1 20.36 -1 19 C-0.34 19 0.32 19 1 19 C0.9278125 17.96359375 0.855625 16.9271875 0.78125 15.859375 C0.68742899 14.4895882 0.59368292 13.11979626 0.5 11.75 C0.45230469 11.06808594 0.40460938 10.38617188 0.35546875 9.68359375 C0.13521281 6.44268497 0 3.2506634 0 0 Z " fill="#0E0E0E" transform="translate(274,43)"/>
<path d="M0 0 C2.22808159 -0.10853983 4.45769932 -0.18583307 6.6875 -0.25 C7.92886719 -0.29640625 9.17023438 -0.3428125 10.44921875 -0.390625 C14.5872616 0.06460524 16.17231573 0.99125873 19 4 C19.50193575 7.57629221 19.80542516 9.84939263 17.6875 12.875 C13.92190429 15.38539714 10.37595487 15.08256519 6 15 C6 16.32 6 17.64 6 19 C7.98 19 9.96 19 12 19 C12 20.32 12 21.64 12 23 C8.04 23 4.08 23 0 23 C0 21.68 0 20.36 0 19 C0.66 19 1.32 19 2 19 C2 14.05 2 9.1 2 4 C1.01 3.67 0.02 3.34 -1 3 C-0.67 2.01 -0.34 1.02 0 0 Z " fill="#080808" transform="translate(133,43)"/>
<path d="M0 0 C2.5625 1.5625 2.5625 1.5625 4 4 C4.77423495 7.96897282 4.63052206 10.93085389 2.5625 14.4375 C-1.17397951 16.71584117 -4.64014606 17.339435 -9 17 C-14.39759036 14.20481928 -14.39759036 14.20481928 -16 11 C-16.375 8.1875 -16.375 8.1875 -16 5 C-10.8773174 -1.06633465 -7.49582583 -1.67757381 0 0 Z " fill="#0E0E0E" transform="translate(339,49)"/>
<path d="M0 0 C2.5625 1.5625 2.5625 1.5625 4 4 C4.77423495 7.96897282 4.63052206 10.93085389 2.5625 14.4375 C-1.17397951 16.71584117 -4.64014606 17.339435 -9 17 C-14.39759036 14.20481928 -14.39759036 14.20481928 -16 11 C-16.375 8.1875 -16.375 8.1875 -16 5 C-10.8773174 -1.06633465 -7.49582583 -1.67757381 0 0 Z " fill="#0E0E0E" transform="translate(315,49)"/>
<path d="M0 0 C2.94658111 3.32678513 2.30836142 6.5893813 2.11328125 10.88671875 C2.05527344 11.64597656 1.99726563 12.40523437 1.9375 13.1875 C2.9275 13.1875 3.9175 13.1875 4.9375 13.1875 C4.9375 14.5075 4.9375 15.8275 4.9375 17.1875 C1.27083333 17.1875 -2.39583333 17.1875 -6.0625 17.1875 C-7.0525 17.249375 -8.0425 17.31125 -9.0625 17.375 C-12.42532409 17.16482349 -13.62821802 16.43452952 -16.0625 14.1875 C-15.875 11.375 -15.875 11.375 -15.0625 8.1875 C-11.41765676 5.07866312 -7.74142739 4.64621837 -3.0625 4.1875 C-6.6925 3.8575 -10.3225 3.5275 -14.0625 3.1875 C-14.0625 2.1975 -14.0625 1.2075 -14.0625 0.1875 C-9.76543201 -1.961034 -4.50845482 -1.19612067 0 0 Z " fill="#0E0E0E" transform="translate(243.0625,48.8125)"/>
<path d="M0 0 C2.8125 0.0625 2.8125 0.0625 6 1 C9.94508949 6.98565301 9.69532354 14.01345358 10 21 C9.01 20.67 8.02 20.34 7 20 C6.67 18.02 6.34 16.04 6 14 C4.54077307 14.11409593 3.08259402 14.24165544 1.625 14.375 C0.81289062 14.44460937 0.00078125 14.51421875 -0.8359375 14.5859375 C-3.20334191 14.82892588 -3.20334191 14.82892588 -5 17 C-11.1988514 18.46518306 -11.1988514 18.46518306 -13.9375 16.875 C-15.2958952 14.477832 -15.07566407 12.71500495 -15 10 C-13.95199219 9.96132813 -13.95199219 9.96132813 -12.8828125 9.921875 C-11.97273438 9.86515625 -11.06265625 9.8084375 -10.125 9.75 C-9.22007813 9.70359375 -8.31515625 9.6571875 -7.3828125 9.609375 C-4.86720334 9.24682803 -4.86720334 9.24682803 -3.7421875 7.140625 C-3.14949791 5.43118344 -2.57214259 3.71642776 -2 2 C-1.34 2 -0.68 2 0 2 C0 1.34 0 0.68 0 0 Z " fill="#FDE272" transform="translate(88,28)"/>
<path d="M0 0 C0.66 2.64 1.32 5.28 2 8 C4.64 8.33 7.28 8.66 10 9 C10.16789126 11.43742131 10.33436133 13.87492546 10.5 16.3125 C10.54769531 17.00279297 10.59539063 17.69308594 10.64453125 18.40429688 C10.83879489 21.27662359 11 24.12013788 11 27 C10.01 27.66 9.02 28.32 8 29 C6.66102417 28.04956626 5.32894573 27.08940853 4 26.125 C2.88625 25.32449219 2.88625 25.32449219 1.75 24.5078125 C0.88375 23.76144531 0.88375 23.76144531 0 23 C0 22.34 0 21.68 0 21 C-0.66 21 -1.32 21 -2 21 C-3.1482685 18.703463 -3.11561175 17.41686833 -3.09765625 14.8671875 C-3.09443359 14.06152344 -3.09121094 13.25585938 -3.08789062 12.42578125 C-3.07951172 11.58402344 -3.07113281 10.74226563 -3.0625 9.875 C-3.05798828 9.02550781 -3.05347656 8.17601563 -3.04882812 7.30078125 C-3.03702874 5.20049091 -3.01909306 3.1002367 -3 1 C-1 0 -1 0 0 0 Z " fill="#FCD35B" transform="translate(21,57)"/>
<path d="M0 0 C3.34944548 5.02416822 3.09834146 9.09951257 3 15 C3.33 14.67 3.66 14.34 4 14 C4.66 13.67 5.32 13.34 6 13 C6.66 12.01 7.32 11.02 8 10 C7.35353512 18.88889215 4.16357293 25.80788056 -1 33 C-1.99 31.68 -2.98 30.36 -4 29 C-3.505 28.4225 -3.01 27.845 -2.5 27.25 C-0.63019987 24.89599371 -0.63019987 24.89599371 -1 21 C-1.61488281 21.68707031 -2.22976562 22.37414062 -2.86328125 23.08203125 C-3.67152344 23.98308594 -4.47976562 24.88414063 -5.3125 25.8125 C-6.11300781 26.70582031 -6.91351563 27.59914063 -7.73828125 28.51953125 C-8.48464844 29.33808594 -9.23101562 30.15664062 -10 31 C-10.79470703 31.90298828 -10.79470703 31.90298828 -11.60546875 32.82421875 C-13 34 -13 34 -16 34 C-16.495 32.515 -16.495 32.515 -17 31 C-16.67 30.34 -16.34 29.68 -16 29 C-13.9375 28.375 -13.9375 28.375 -12 28 C-12 26.02 -12 24.04 -12 22 C-13.98 21.34 -15.96 20.68 -18 20 C-16 19 -16 19 -12.1875 19.625 C-8.91673461 20.10757194 -8.13461114 20.06450117 -5 18.5625 C-4.34 18.046875 -3.68 17.53125 -3 17 C-2.67 17.33 -2.34 17.66 -2 18 C0.35245917 13.00102427 0.35398671 9.08458843 -0.5625 3.6875 C-0.706875 2.800625 -0.85125 1.91375 -1 1 C-0.67 0.67 -0.34 0.34 0 0 Z " fill="#FBD35C" transform="translate(101,52)"/>
<path d="M0 0 C5.61 0 11.22 0 17 0 C15.97037159 5.14814203 15.52967813 5.94839667 11.9375 9.3125 C11.20402344 10.00988281 10.47054687 10.70726562 9.71484375 11.42578125 C9.14894531 11.94527344 8.58304688 12.46476562 8 13 C9.65 13.33 11.3 13.66 13 14 C13.33 13.01 13.66 12.02 14 11 C14.99 11 15.98 11 17 11 C17 13.31 17 15.62 17 18 C11.39 18 5.78 18 0 18 C1.02962841 12.85185797 1.47032187 12.05160333 5.0625 8.6875 C5.79597656 7.99011719 6.52945313 7.29273438 7.28515625 6.57421875 C7.85105469 6.05472656 8.41695312 5.53523438 9 5 C7.35 4.67 5.7 4.34 4 4 C4 4.99 4 5.98 4 7 C2.68 6.67 1.36 6.34 0 6 C0 4.02 0 2.04 0 0 Z " fill="#0D0D0D" transform="translate(181,48)"/>
<path d="M0 0 C2.66666667 0 5.33333333 0 8 0 C9.423125 -0.0928125 9.423125 -0.0928125 10.875 -0.1875 C14.45317135 0.02719028 15.51223865 0.48020739 18 3 C18.390625 5.69921875 18.390625 5.69921875 18.25 8.6875 C18.21390625 9.68136719 18.1778125 10.67523438 18.140625 11.69921875 C18.07101562 12.83810547 18.07101562 12.83810547 18 14 C18.99 14.33 19.98 14.66 21 15 C20.67 15.99 20.34 16.98 20 18 C17.69 18 15.38 18 13 18 C13 13.66666667 13 9.33333333 13 5 C11.33388095 4.957279 9.66617115 4.95936168 8 5 C6.50256881 6.49743119 6.66797307 7.98824239 6.4375 10.0625 C6.293125 11.361875 6.14875 12.66125 6 14 C6.99 14.33 7.98 14.66 9 15 C8.67 15.99 8.34 16.98 8 18 C5.36 18 2.72 18 0 18 C0 16.68 0 15.36 0 14 C0.66 14 1.32 14 2 14 C2 10.7 2 7.4 2 4 C1.01 3.67 0.02 3.34 -1 3 C-0.67 2.01 -0.34 1.02 0 0 Z " fill="#0F0F0F" transform="translate(347,48)"/>
<path d="M0 0 C-0.99 0.99 -1.98 1.98 -3 3 C-3.495 2.505 -3.495 2.505 -4 2 C-6.45860045 1.96812925 -8.90249916 2.0682073 -11.359375 2.16015625 C-14 2 -14 2 -16.46484375 1.01171875 C-24.5985686 -2.23425157 -34.05579291 0.35193097 -42 3 C-42.99 2.67 -43.98 2.34 -45 2 C-46.33106622 1.65772583 -47.66400079 1.32248257 -49 1 C-47.48329636 0.20044999 -45.96138002 -0.58921388 -44.4375 -1.375 C-43.59058594 -1.81585937 -42.74367188 -2.25671875 -41.87109375 -2.7109375 C-27.10911401 -9.33876514 -14.13402646 -5.81276975 0 0 Z " fill="#FBB95F" transform="translate(83,12)"/>
<path d="M0 0 C1.61648438 0.04060547 1.61648438 0.04060547 3.265625 0.08203125 C4.08546875 0.11683594 4.9053125 0.15164062 5.75 0.1875 C5.75 2.1675 5.75 4.1475 5.75 6.1875 C2.12 5.8575 -1.51 5.5275 -5.25 5.1875 C-5.25 5.5175 -5.25 5.8475 -5.25 6.1875 C-4.55132812 6.30867188 -3.85265625 6.42984375 -3.1328125 6.5546875 C-1.76769531 6.80605469 -1.76769531 6.80605469 -0.375 7.0625 C0.52992188 7.22492187 1.43484375 7.38734375 2.3671875 7.5546875 C4.75 8.1875 4.75 8.1875 6.75 10.1875 C7.1875 12.625 7.1875 12.625 6.75 15.1875 C2.95722574 18.11891161 0.1603799 18.53069934 -4.5625 18.375 C-5.63113281 18.34792969 -6.69976562 18.32085937 -7.80078125 18.29296875 C-8.60902344 18.25816406 -9.41726563 18.22335938 -10.25 18.1875 C-10.58 16.5375 -10.91 14.8875 -11.25 13.1875 C-10.26 12.8575 -9.27 12.5275 -8.25 12.1875 C-7.59 12.5175 -6.93 12.8475 -6.25 13.1875 C-4.87657169 13.2564472 -3.49997898 13.27217708 -2.125 13.25 C-0.84625 13.229375 0.4325 13.20875 1.75 13.1875 C2.08 12.5275 2.41 11.8675 2.75 11.1875 C2.06292969 11.13851562 1.37585938 11.08953125 0.66796875 11.0390625 C-0.23308594 10.96429688 -1.13414062 10.88953125 -2.0625 10.8125 C-3.40248047 10.70808594 -3.40248047 10.70808594 -4.76953125 10.6015625 C-7.25 10.1875 -7.25 10.1875 -10.25 8.1875 C-10.6875 5.75 -10.6875 5.75 -10.25 3.1875 C-7.01772472 -0.06791806 -4.46710444 -0.14566645 0 0 Z " fill="#0F0F0F" transform="translate(383.25,47.8125)"/>
<path d="M0 0 C5.61 0 11.22 0 17 0 C17 4 17 4 15.3203125 5.8515625 C14.23363281 6.72941406 14.23363281 6.72941406 13.125 7.625 C12.40570313 8.21539062 11.68640625 8.80578125 10.9453125 9.4140625 C10.30335938 9.93742187 9.66140625 10.46078125 9 11 C8.34 11.66 7.68 12.32 7 13 C9.97 13.495 9.97 13.495 13 14 C13.33 13.01 13.66 12.02 14 11 C14.99 11.33 15.98 11.66 17 12 C17 13.98 17 15.96 17 18 C11.39 18 5.78 18 0 18 C1.02962841 12.85185797 1.47032187 12.05160333 5.0625 8.6875 C5.79597656 7.99011719 6.52945313 7.29273438 7.28515625 6.57421875 C7.85105469 6.05472656 8.41695312 5.53523438 9 5 C7.35 4.67 5.7 4.34 4 4 C3.67 4.99 3.34 5.98 3 7 C2.01 6.67 1.02 6.34 0 6 C0 4.02 0 2.04 0 0 Z " fill="#060606" transform="translate(205,48)"/>
<path d="M0 0 C2.3125 0.8125 2.3125 0.8125 4 2 C4 2.66 4 3.32 4 4 C2.50565577 4.80229137 1.00413528 5.59121867 -0.5 6.375 C-1.3353125 6.81585938 -2.170625 7.25671875 -3.03125 7.7109375 C-9.87662244 10.68327027 -16.13824242 11.32089975 -23.5 11.25 C-24.30308594 11.25773437 -25.10617188 11.26546875 -25.93359375 11.2734375 C-31.27287674 11.25613026 -35.8700286 10.48251467 -41 9 C-40.67 7.35 -40.34 5.7 -40 4 C-38.0830014 4.31045732 -36.16641277 4.62344671 -34.25 4.9375 C-32.64898437 5.19853516 -32.64898437 5.19853516 -31.015625 5.46484375 C-28 6 -28 6 -25.90234375 6.546875 C-18.21586087 8.37774156 -11.76220067 6.77019522 -5 3 C-3.6078125 2.071875 -3.6078125 2.071875 -2.1875 1.125 C-1.465625 0.75375 -0.74375 0.3825 0 0 Z " fill="#FCB85D" transform="translate(82,93)"/>
<path d="M0 0 C2.90024897 2.05139561 3.64766297 3.427603 4.5625 6.8125 C0.64276475 8.03853591 -2.42616534 7.5136619 -6.4140625 6.87109375 C-7.08179688 6.85175781 -7.74953125 6.83242188 -8.4375 6.8125 C-9.0975 7.4725 -9.7575 8.1325 -10.4375 8.8125 C-11.4275 8.8125 -12.4175 8.8125 -13.4375 8.8125 C-13.4375 9.4725 -13.4375 10.1325 -13.4375 10.8125 C-16.30474686 10.23905063 -17.2989515 9.9510485 -19.4375 7.8125 C-19.4375 4.875 -19.4375 4.875 -18.4375 1.8125 C-12.82900503 -2.39387123 -6.38468703 -2.20561915 0 0 Z " fill="#FCE272" transform="translate(66.4375,13.1875)"/>
<path d="M0 0 C2.9375 0.375 2.9375 0.375 4.9375 2.375 C5.27620968 8.69758065 5.27620968 8.69758065 3.9375 11.375 C0.9675 11.375 -2.0025 11.375 -5.0625 11.375 C-5.7225 12.695 -6.3825 14.015 -7.0625 15.375 C-7.3925 15.705 -7.7225 16.035 -8.0625 16.375 C-8.29325082 17.72247084 -8.47403063 19.07877565 -8.625 20.4375 C-8.769375 21.736875 -8.91375 23.03625 -9.0625 24.375 C-10.0525 24.045 -11.0425 23.715 -12.0625 23.375 C-12.08944851 21.41674127 -12.10887218 19.45837774 -12.125 17.5 C-12.13660156 16.40945312 -12.14820313 15.31890625 -12.16015625 14.1953125 C-12.0625 11.375 -12.0625 11.375 -11.0625 9.375 C-9.4125 9.375 -7.7625 9.375 -6.0625 9.375 C-6.124375 8.6325 -6.18625 7.89 -6.25 7.125 C-5.93695167 2.53362443 -4.65720207 0.57026964 0 0 Z " fill="#FCDF6C" transform="translate(50.0625,34.625)"/>
<path d="M0 0 C0.66 0.66 1.32 1.32 2 2 C1.64644564 4.26274788 1.02455574 5.95088852 0 8 C-0.06996014 9.70702735 -0.08440154 11.41668003 -0.0625 13.125 C-0.04896484 14.49011719 -0.04896484 14.49011719 -0.03515625 15.8828125 C-0.02355469 16.58148438 -0.01195312 17.28015625 0 18 C-0.66 18 -1.32 18 -2 18 C-1.96519531 19.01320313 -1.93039063 20.02640625 -1.89453125 21.0703125 C-1.86637405 22.4218583 -1.83907597 23.77342219 -1.8125 25.125 C-1.78736328 25.79015625 -1.76222656 26.4553125 -1.73632812 27.140625 C-1.66679286 31.86902292 -2.59721625 34.95121479 -5 39 C-7.44353521 35.23695578 -7.38415492 31.40482249 -7.375 27.0625 C-7.37411377 26.31194336 -7.37322754 25.56138672 -7.37231445 24.78808594 C-7.18334985 15.75231645 -4.86668777 7.64167592 0 0 Z " fill="#FBB95D" transform="translate(17,30)"/>
<path d="M0 0 C2.97 0 5.94 0 9 0 C9 4.62 9 9.24 9 14 C11.31 14 13.62 14 16 14 C16 15.32 16 16.64 16 18 C10.39 18 4.78 18 -1 18 C-1 16.68 -1 15.36 -1 14 C1.31 14 3.62 14 6 14 C6 10.7 6 7.4 6 4 C4.02 4 2.04 4 0 4 C0 2.68 0 1.36 0 0 Z " fill="#030303" transform="translate(158,48)"/>
<path d="M0 0 C2.98090266 3.61224665 3.55066068 6.32687112 4 11 C4.99 10.67 5.98 10.34 7 10 C9.21934455 13.32901683 9.27129898 14.48793637 9.25 18.375 C9.25515625 19.31085937 9.2603125 20.24671875 9.265625 21.2109375 C8.98137103 24.19560417 8.35524862 26.33098996 7 29 C4.375 30.8125 4.375 30.8125 2 32 C2.33 31.01 2.66 30.02 3 29 C3.33426045 24.23678865 3.02704033 20.71099682 1.5 16.1875 C-0.30278086 10.74530237 -0.29167129 5.68218887 0 0 Z " fill="#FCB557" transform="translate(100,38)"/>
<path d="M0 0 C3.37392649 0.6747853 4.56220896 1.66784386 6.5 4.5 C6.43498241 7.68586196 6.01914046 9.68030454 4.3125 12.375 C1.56936366 14.07763635 -0.34768868 13.95971207 -3.5 13.5 C-5.8151023 11.41640793 -6.40276165 10.05564772 -6.9375 7 C-6.20847934 2.83416768 -4.12966477 0.82593295 0 0 Z " fill="#E6562B" transform="translate(87.5,41.5)"/>
<path d="M0 0 C3.3376027 0.66752054 4.50600369 1.76748653 6.5 4.5 C7 7 7 7 6.5 9.5 C4.50600369 12.23251347 3.3376027 13.33247946 0 14 C-3.3376027 13.33247946 -4.50600369 12.23251347 -6.5 9.5 C-7 7 -7 7 -6.5 4.5 C-4.50600369 1.76748653 -3.3376027 0.66752054 0 0 Z " fill="#E5552B" transform="translate(43.5,21.5)"/>
<path d="M0 0 C2.21414055 3.63156106 2.61083315 7.35523484 3.0625 11.5 C3.18274536 12.56033447 3.18274536 12.56033447 3.30541992 13.64208984 C3.465781 15.0783673 3.62246717 16.51506005 3.77539062 17.95214844 C3.97879259 19.80664375 4.21411805 21.65756903 4.453125 23.5078125 C5.12515219 29.33691795 5.41032016 33.08913897 2 38 C1.67 38 1.34 38 1 38 C0.896875 36.80375 0.79375 35.6075 0.6875 34.375 C0.21108648 30.4375824 -1.01130716 27.45859625 -3 24 C-1.35 24 0.3 24 2 24 C2 22.68 2 21.36 2 20 C0.35 19.67 -1.3 19.34 -3 19 C-3.433125 17.3603125 -3.433125 17.3603125 -3.875 15.6875 C-4.81893204 11.95986155 -4.81893204 11.95986155 -7 9 C-5.68 9 -4.36 9 -3 9 C-2.71125 9.969375 -2.4225 10.93875 -2.125 11.9375 C-1.35785318 15.10664203 -1.35785318 15.10664203 1 16 C0.84402344 14.92878906 0.68804687 13.85757813 0.52734375 12.75390625 C0.33043783 11.35681186 0.13383907 9.95967416 -0.0625 8.5625 C-0.16626953 7.85544922 -0.27003906 7.14839844 -0.37695312 6.41992188 C-0.62689163 4.61864093 -0.81801314 2.80940959 -1 1 C-0.67 0.67 -0.34 0.34 0 0 Z " fill="#FBD45C" transform="translate(97,33)"/>
<path d="M0 0 C1.875 1.0625 1.875 1.0625 3 3 C3.4375 6.5 3.4375 6.5 3 10 C1.375 12 1.375 12 -1 13 C-4.125 12.875 -4.125 12.875 -7 12 C-9.31282587 8.53076119 -9.42478586 7.07794425 -9 3 C-6.79086995 -0.68188342 -4.01844539 -0.50230567 0 0 Z " fill="#E55129" transform="translate(64,19)"/>
<path d="M0 0 C2 2 2 2 2.4375 5.4375 C2 9 2 9 -0.1875 11 C-3.37706461 12.13406742 -4.83335633 12.11260453 -8 11 C-10 9 -10 9 -10.375 5.5625 C-10 2 -10 2 -8.375 0 C-5.18820399 -1.34180884 -3.28890107 -0.92947204 0 0 Z " fill="#E85B30" transform="translate(66,85)"/>
<path d="M0 0 C2.57485213 1.016389 3.82043546 1.64656278 5.375 3.9375 C5.8125 6.375 5.8125 6.375 5.375 8.9375 C3.38100369 11.67001347 2.2126027 12.76997946 -1.125 13.4375 C-4.4626027 12.76997946 -5.63100369 11.67001347 -7.625 8.9375 C-8.1875 6.4375 -8.1875 6.4375 -7.625 3.9375 C-5.11211175 1.20922133 -3.77767948 -0.08994475 0 0 Z " fill="#E54E28" transform="translate(79.625,25.0625)"/>
<path d="M0 0 C3.125 0.375 3.125 0.375 5.5625 2 C7.125 4.375 7.125 4.375 7 7.5 C6.125 10.375 6.125 10.375 4.125 12.375 C0.6875 12.75 0.6875 12.75 -2.875 12.375 C-4.875 10.75 -4.875 10.75 -5.875 8.375 C-5.58844949 3.59915821 -5.19565949 0.67769472 0 0 Z " fill="#E6542B" transform="translate(60.875,35.625)"/>
<path d="M0 0 C2 2 2 2 2.375 4.875 C2 8 2 8 0.375 10.4375 C-2 12 -2 12 -5.125 11.875 C-8 11 -8 11 -10 9 C-10.375 5.5625 -10.375 5.5625 -10 2 C-7.00303875 -1.6885677 -4.34072074 -1.22672543 0 0 Z " fill="#E5532A" transform="translate(35,36)"/>
<path d="M0 0 C2.875 0.875 2.875 0.875 4.875 2.875 C5.42521834 8.92740175 5.42521834 8.92740175 3.75 11.8125 C0.95337528 13.39725401 -0.9743196 13.33447423 -4.125 12.875 C-6.4401023 10.79140793 -7.02776165 9.43064772 -7.5625 6.375 C-7.125 3.875 -7.125 3.875 -5.5 1.5 C-3.125 -0.125 -3.125 -0.125 0 0 Z " fill="#E5542B" transform="translate(48.125,47.125)"/>
<path d="M0 0 C2 2 2 2 2.25 4.9375 C2 8 2 8 0 11 C-2.875 11.9375 -2.875 11.9375 -6 12 C-8.375 10.4375 -8.375 10.4375 -10 8 C-10.45702733 4.80080869 -10.50056349 2.91279226 -8.9375 0.0625 C-5.81651045 -1.6490104 -3.35466116 -0.79291991 0 0 Z " fill="#E55129" transform="translate(72,54)"/>
<path d="M0 0 C0.94875 0.04125 1.8975 0.0825 2.875 0.125 C2.875 2.435 2.875 4.745 2.875 7.125 C1.95267578 7.38023438 1.95267578 7.38023438 1.01171875 7.640625 C-3.72879478 9.062023 -6.33826335 9.87155985 -9.125 14.125 C-10.445 14.125 -11.765 14.125 -13.125 14.125 C-13.125 12.145 -13.125 10.165 -13.125 8.125 C-12.465 8.125 -11.805 8.125 -11.125 8.125 C-11.455 6.805 -11.785 5.485 -12.125 4.125 C-11.01125 3.83625 -9.8975 3.5475 -8.75 3.25 C-4.92667502 2.06345087 -3.90495138 0.15619806 0 0 Z " fill="#FCE06E" transform="translate(33.125,26.875)"/>
<path d="M0 0 C1.875 1.125 1.875 1.125 3 3 C3.5 5.9375 3.5 5.9375 3 9 C0.875 11.5 0.875 11.5 -2 13 C-5.25 12.375 -5.25 12.375 -8 11 C-9.39935013 8.20129973 -9.25265405 6.09501208 -9 3 C-6.79086995 -0.68188342 -4.01844539 -0.50230567 0 0 Z " fill="#E5532A" transform="translate(95,60)"/>
<path d="M0 0 C1.875 1.0625 1.875 1.0625 3 3 C3.3125 6.5625 3.3125 6.5625 3 10 C1 12 1 12 -2.4375 12.3125 C-6 12 -6 12 -7.9375 10.875 C-9.50422245 8.11019567 -9.38976435 6.11811483 -9 3 C-6.79086995 -0.68188342 -4.01844539 -0.50230567 0 0 Z " fill="#E64F28" transform="translate(40,72)"/>
<path d="M0 0 C1.875 1.125 1.875 1.125 3 3 C3.39365568 6.14924548 3.52854531 8.11909116 1.875 10.875 C-0.88090884 12.52854531 -2.85075452 12.39365568 -6 12 C-7.875 10.9375 -7.875 10.9375 -9 9 C-9.375 5.4375 -9.375 5.4375 -9 2 C-5.53076119 -0.31282587 -4.07794425 -0.42478586 0 0 Z " fill="#E7562D" transform="translate(31,54)"/>
<path d="M0 0 C1.875 1.125 1.875 1.125 3 3 C3.39365568 6.14924548 3.52854531 8.11909116 1.875 10.875 C-0.88090884 12.52854531 -2.85075452 12.39365568 -6 12 C-7.875 10.9375 -7.875 10.9375 -9 9 C-9.375 5.4375 -9.375 5.4375 -9 2 C-5.53076119 -0.31282587 -4.07794425 -0.42478586 0 0 Z " fill="#E5522A" transform="translate(59,67)"/>
<path d="M0 0 C1.875 1.125 1.875 1.125 3 3 C3.39365568 6.14924548 3.52854531 8.11909116 1.875 10.875 C-0.88090884 12.52854531 -2.85075452 12.39365568 -6 12 C-7.875 10.875 -7.875 10.875 -9 9 C-9.39365568 5.85075452 -9.52854531 3.88090884 -7.875 1.125 C-5.11909116 -0.52854531 -3.14924548 -0.39365568 0 0 Z " fill="#E6512A" transform="translate(81,73)"/>
<path d="M0 0 C1.65 0 3.3 0 5 0 C5 0.66 5 1.32 5 2 C7.31 2.33 9.62 2.66 12 3 C12.33 4.32 12.66 5.64 13 7 C8.17375515 10.84129692 5.16456476 12.62257767 -1 13 C-0.67 8.71 -0.34 4.42 0 0 Z " fill="#FEE271" transform="translate(76,52)"/>
<path d="M0 0 C4.455 0.99 4.455 0.99 9 2 C9.02705729 3.77074917 9.04642195 5.54161711 9.0625 7.3125 C9.07410156 8.29863281 9.08570313 9.28476563 9.09765625 10.30078125 C9 13 9 13 8 16 C5.64828869 15.40138258 3.3140622 14.73075648 1 14 C-0.38226016 11.23547967 -0.09525387 8.9538637 -0.0625 5.875 C-0.05347656 4.77929688 -0.04445313 3.68359375 -0.03515625 2.5546875 C-0.02355469 1.71164063 -0.01195313 0.86859375 0 0 Z " fill="#FCE173" transform="translate(22,64)"/>
<path d="M0 0 C3.0625 0.25 3.0625 0.25 6.0625 2.25 C6.4375 5.25 6.4375 5.25 6.0625 8.25 C2.59326119 10.56282587 1.14044425 10.67478586 -2.9375 10.25 C-4.875 9.0625 -4.875 9.0625 -5.9375 7.25 C-5.61080773 2.78520569 -4.77506426 0.40638845 0 0 Z " fill="#F3F3F3" transform="translate(332.9375,51.75)"/>
<path d="M0 0 C3.0625 0.25 3.0625 0.25 6.0625 2.25 C6.4375 5.25 6.4375 5.25 6.0625 8.25 C2.59326119 10.56282587 1.14044425 10.67478586 -2.9375 10.25 C-4.875 9.0625 -4.875 9.0625 -5.9375 7.25 C-5.61080773 2.78520569 -4.77506426 0.40638845 0 0 Z " fill="#F3F3F3" transform="translate(308.9375,51.75)"/>
<path d="M0 0 C0.33 0 0.66 0 1 0 C0.35353512 8.88889215 -2.83642707 15.80788056 -8 23 C-8.99 21.68 -9.98 20.36 -11 19 C-10.505 18.46375 -10.01 17.9275 -9.5 17.375 C-7.70260533 15.05975199 -7.70260533 15.05975199 -8.25 12.125 C-8 9 -8 9 -6.48828125 7.38671875 C-5.22796842 6.35648331 -3.94158237 5.35716041 -2.62890625 4.39453125 C-0.71264829 2.99628482 -0.71264829 2.99628482 0 0 Z " fill="#FBB85E" transform="translate(108,62)"/>
<path d="M0 0 C14.5 0 14.5 0 18.25 2.5 C18.95640625 2.9640625 19.6628125 3.428125 20.390625 3.90625 C21.18726563 4.44765625 21.18726563 4.44765625 22 5 C21.34 5.66 20.68 6.32 20 7 C20.33 7.66 20.66 8.32 21 9 C15.46640844 8.4943565 11.43969425 7.04383132 6.5625 4.4375 C5.60827148 3.9434668 5.60827148 3.9434668 4.63476562 3.43945312 C3.08505424 2.63546752 1.54181678 1.81902334 0 1 C0 0.67 0 0.34 0 0 Z " fill="#FBB659" transform="translate(70,13)"/>
<path d="M0 0 C2.0625 2 2.0625 2 3 4 C2.01 4.495 2.01 4.495 1 5 C0.67 4.34 0.34 3.68 0 3 C-6.08408472 2.80185739 -6.08408472 2.80185739 -12 4 C-12 5.32 -12 6.64 -12 8 C-10.02 7.34 -8.04 6.68 -6 6 C-6 6.99 -6 7.98 -6 9 C-7.32 9.33 -8.64 9.66 -10 10 C-10 10.66 -10 11.32 -10 12 C-12.86724686 11.42655063 -13.8614515 11.1385485 -16 9 C-16 6.0625 -16 6.0625 -15 3 C-10.53440617 -0.34919538 -5.4220386 -1.00998758 0 0 Z " fill="#FDE171" transform="translate(63,12)"/>
<path d="M0 0 C0.33 0.66 0.66 1.32 1 2 C-3.56790152 9.24511532 -9.74845819 18.97275979 -18.30078125 21.74609375 C-19.14189453 21.87177734 -19.14189453 21.87177734 -20 22 C-15.48240469 16.50562732 -10.56874435 11.51881363 -5.48828125 6.55078125 C-3.43960145 4.45064325 -1.67840362 2.39691754 0 0 Z " fill="#EE9C34" transform="translate(100,72)"/>
<path d="M0 0 C5.63575866 7.1643617 5.26010553 14.19976306 5 23 C1.11313327 19.11313327 0.1387258 13.25075531 -0.19140625 7.89453125 C-0.18799315 5.25620423 -0.13523771 2.63463086 0 0 Z " fill="#EE9934" transform="translate(100,38)"/>
<path d="M0 0 C6.15234375 -0.09765625 6.15234375 -0.09765625 8 0 C9 1 9 1 9.0625 3.5625 C9.041875 4.366875 9.02125 5.17125 9 6 C6.04335481 7.4783226 3.25770263 7.06032783 0 7 C0 4.69 0 2.38 0 0 Z " fill="#F1F1F1" transform="translate(139,47)"/>
<path d="M0 0 C1.7184628 2.33690664 1.56864731 3.45902308 1.19921875 6.30078125 C1.11414063 7.07421875 1.0290625 7.84765625 0.94140625 8.64453125 C0.23067695 11.12758553 -0.72464991 12.15550293 -2.67578125 13.80078125 C-2.77890625 12.60453125 -2.88203125 11.40828125 -2.98828125 10.17578125 C-3.46469477 6.23836365 -4.68708841 3.2593775 -6.67578125 -0.19921875 C-2.15606487 -1.54291822 -2.15606487 -1.54291822 0 0 Z " fill="#FBDF6F" transform="translate(100.67578125,57.19921875)"/>
<path d="M0 0 C-5.29325505 3.43319533 -10.59957356 6.84146761 -16.0625 10 C-17.13177734 10.61875 -17.13177734 10.61875 -18.22265625 11.25 C-18.80917969 11.4975 -19.39570313 11.745 -20 12 C-20.66 11.67 -21.32 11.34 -22 11 C-6.43556701 -2.14046392 -6.43556701 -2.14046392 0 0 Z " fill="#EF9D36" transform="translate(50,13)"/>
<path d="M0 0 C5.202441 1.84377698 9.63912718 4.7331402 14.296875 7.63476562 C18.42034892 10.16354912 22.50963402 12.1957315 27 14 C22.65786563 15.44737812 20.07014817 13.74657699 16 12 C14.5459375 11.38125 14.5459375 11.38125 13.0625 10.75 C2.3 4.6 2.3 4.6 0 0 Z " fill="#EE9D36" transform="translate(27,85)"/>
<path d="M0 0 C-0.99 0.495 -0.99 0.495 -2 1 C-2 1.66 -2 2.32 -2 3 C-1.34 3 -0.68 3 0 3 C0.33 4.32 0.66 5.64 1 7 C0.34 7 -0.32 7 -1 7 C-1.33 6.34 -1.66 5.68 -2 5 C-2.61875 5.350625 -3.2375 5.70125 -3.875 6.0625 C-4.57625 6.371875 -5.2775 6.68125 -6 7 C-6.66 6.67 -7.32 6.34 -8 6 C-8 6.66 -8 7.32 -8 8 C-6.68 8 -5.36 8 -4 8 C-4.33 8.66 -4.66 9.32 -5 10 C-6.32 9.67 -7.64 9.34 -9 9 C-9.1875 5.625 -9.1875 5.625 -9 2 C-5.5647952 -0.29013653 -4.014669 -0.17842973 0 0 Z " fill="#E34D26" transform="translate(31,54)"/>
<path d="M0 0 C1.65 0 3.3 0 5 0 C4.01 3.63 3.02 7.26 2 11 C0.68 10.34 -0.64 9.68 -2 9 C-2.125 5.625 -2.125 5.625 -2 2 C-1.34 1.34 -0.68 0.68 0 0 Z " fill="#E24A25" transform="translate(58,85)"/>
<path d="M0 0 C0.33 0.99 0.66 1.98 1 3 C-0.8253125 3.185625 -0.8253125 3.185625 -2.6875 3.375 C-6.06479059 3.78891306 -8.89756695 4.54573451 -12 6 C-12 4.68 -12 3.36 -12 2 C-8.09971775 -0.60018816 -4.52565431 -0.15085514 0 0 Z " fill="#FDF69F" transform="translate(63,14)"/>
<path d="M0 0 C1.64826111 2.96687001 2.44271087 5.65626525 3 9 C2.071875 8.835 1.14375 8.67 0.1875 8.5 C-2.95621353 7.92251612 -2.95621353 7.92251612 -6 8 C-5.1875 5.5625 -5.1875 5.5625 -4 3 C-3.01 2.67 -2.02 2.34 -1 2 C-0.67 1.34 -0.34 0.68 0 0 Z " fill="#F9CA4E" transform="translate(54,24)"/>
<path d="M0 0 C0.33 0 0.66 0 1 0 C1.48339973 6.40504648 1.48339973 6.40504648 -0.625 9 C-3.80165405 10.33753855 -5.72894395 9.94497175 -9 9 C-9.33 8.34 -9.66 7.68 -10 7 C-7.36 6.67 -4.72 6.34 -2 6 C-1.34 4.02 -0.68 2.04 0 0 Z " fill="#E75D2E" transform="translate(66,22)"/>
<path d="M0 0 C1.875 2 1.875 2 3 4 C0.69 3.34 -1.62 2.68 -4 2 C-4 2.99 -4 3.98 -4 5 C-4.99 5 -5.98 5 -7 5 C-7.66 6.32 -8.32 7.64 -9 9 C-9.36 3.6 -9.36 3.6 -7.875 1.125 C-5.08893958 -0.54663625 -3.18011138 -0.46376624 0 0 Z " fill="#E65A2F" transform="translate(40,72)"/>
<path d="M0 0 C0.33 0 0.66 0 1 0 C1.33 3.63 1.66 7.26 2 11 C2.66 11 3.32 11 4 11 C4.6875 12.625 4.6875 12.625 5 15 C3.5625 18.25 3.5625 18.25 2 21 C-0.71486934 17.02389214 -0.22440753 12.86098023 -0.125 8.25 C-0.11597656 7.45722656 -0.10695313 6.66445313 -0.09765625 5.84765625 C-0.07417012 3.89830719 -0.03830137 1.94911425 0 0 Z " fill="#FBC070" transform="translate(10,48)"/>
<path d="M0 0 C0.33 0 0.66 0 1 0 C1 3.63 1 7.26 1 11 C-0.32 11 -1.64 11 -3 11 C-3.33 11.99 -3.66 12.98 -4 14 C-3.46148032 8.72250715 -2.22656164 4.74354436 0 0 Z " fill="#D6D6D6" transform="translate(291,51)"/>
<path d="M0 0 C2.97 0.33 5.94 0.66 9 1 C9 1.66 9 2.32 9 3 C7.35 3 5.7 3 4 3 C3.67 4.32 3.34 5.64 3 7 C1.35 6.01 -0.3 5.02 -2 4 C-1.34 2.68 -0.68 1.36 0 0 Z " fill="#F9C34D" transform="translate(32,83)"/>
<path d="M0 0 C5.90054805 0.46583274 11.02392664 2.90337881 16 6 C16.99 7.485 16.99 7.485 18 9 C13.64029169 7.65150163 9.68658562 5.95092154 5.625 3.875 C4.56539063 3.33617187 3.50578125 2.79734375 2.4140625 2.2421875 C1.61742188 1.83226562 0.82078125 1.42234375 0 1 C0 0.67 0 0.34 0 0 Z " fill="#EEA239" transform="translate(70,13)"/>
<path d="M0 0 C0.66 0 1.32 0 2 0 C2.33 1.32 2.66 2.64 3 4 C1.22950311 4.05410687 -0.54146849 4.09284119 -2.3125 4.125 C-3.79169922 4.15980469 -3.79169922 4.15980469 -5.30078125 4.1953125 C-8 4 -8 4 -11 2 C-10 1 -10 1 -7.125 0.9375 C-5.578125 0.9684375 -5.578125 0.9684375 -4 1 C-3.01 1 -2.02 1 -1 1 C-0.67 0.67 -0.34 0.34 0 0 Z " fill="#FDD85F" transform="translate(74,65)"/>
<path d="M0 0 C0.25 5.625 0.25 5.625 -2 9 C-5.125 9.6875 -5.125 9.6875 -8 10 C-7.34 9.67 -6.68 9.34 -6 9 C-6 8.34 -6 7.68 -6 7 C-5.34 6.67 -4.68 6.34 -4 6 C-4.33 5.34 -4.66 4.68 -5 4 C-4.34 4 -3.68 4 -3 4 C-3 3.01 -3 2.02 -3 1 C-1 0 -1 0 0 0 Z " fill="#E75D2F" transform="translate(74,56)"/>
<path d="M0 0 C2 1.375 2 1.375 4 3 C4 3.66 4 4.32 4 5 C4.639375 5.103125 5.27875 5.20625 5.9375 5.3125 C6.618125 5.539375 7.29875 5.76625 8 6 C8.33 6.99 8.66 7.98 9 9 C5.72965541 9.36337162 4.39116247 9.28544288 1.6875 7.3125 C-0.28544288 4.60883753 -0.36337162 3.27034459 0 0 Z " fill="#E96130" transform="translate(72,29)"/>
<path d="M0 0 C0.66 0.33 1.32 0.66 2 1 C2 3.31 2 5.62 2 8 C-1.57644848 9.2380014 -4.33694766 8.74926071 -8 8 C-8 7.67 -8 7.34 -8 7 C-7.05125 6.773125 -6.1025 6.54625 -5.125 6.3125 C-1.80676612 5.30916286 -1.80676612 5.30916286 -0.625 2.375 C-0.41875 1.59125 -0.2125 0.8075 0 0 Z " fill="#F8BE3A" transform="translate(62,72)"/>
<path d="M0 0 C0.66 0 1.32 0 2 0 C2.33 0.66 2.66 1.32 3 2 C3.66 1.67 4.32 1.34 5 1 C5.33 2.32 5.66 3.64 6 5 C5.34 5 4.68 5 4 5 C4 5.99 4 6.98 4 8 C2.68 8 1.36 8 0 8 C0 5.36 0 2.72 0 0 Z " fill="#FCF39A" transform="translate(22,68)"/>
<path d="M0 0 C2.05078125 0.03255208 4.1015625 0.06510417 6.15234375 0.09765625 C5.82234375 1.08765625 5.49234375 2.07765625 5.15234375 3.09765625 C2.51234375 3.42765625 -0.12765625 3.75765625 -2.84765625 4.09765625 C-2.84765625 0.15051037 -2.84765625 0.15051037 0 0 Z " fill="#EFEFEF" transform="translate(234.84765625,57.90234375)"/>
<path d="M0 0 C1.32 0 2.64 0 4 0 C4.66 3.3 5.32 6.6 6 10 C5.01 10 4.02 10 3 10 C3 8.02 3 6.04 3 4 C2.01 3.67 1.02 3.34 0 3 C0 2.01 0 1.02 0 0 Z " fill="#FDF7A0" transform="translate(89,30)"/>
<path d="M0 0 C2.97 0.495 2.97 0.495 6 1 C6.33 2.32 6.66 3.64 7 5 C5.68 5.33 4.36 5.66 3 6 C0 2.25 0 2.25 0 0 Z " fill="#FCCC46" transform="translate(76,65)"/>
<path d="M0 0 C1.5625 1.25 1.5625 1.25 3 3 C2.6875 5.1875 2.6875 5.1875 2 7 C1.34 7 0.68 7 0 7 C0 9.64 0 12.28 0 15 C-0.33 15 -0.66 15 -1 15 C-1.02685412 12.68756208 -1.04632841 10.3750373 -1.0625 8.0625 C-1.07410156 6.77472656 -1.08570312 5.48695312 -1.09765625 4.16015625 C-1 1 -1 1 0 0 Z " fill="#F8B34E" transform="translate(100,31)"/>
<path d="M0 0 C3.34944548 5.02416822 3.09834146 9.09951257 3 15 C0.27615178 9.94142473 -1.67947366 5.71021045 0 0 Z " fill="#F9CA53" transform="translate(101,52)"/>
<path d="M0 0 C0.20086443 3.71599191 0.1519437 4.77208445 -2 8 C-2.66 8 -3.32 8 -4 8 C-4 7.01 -4 6.02 -4 5 C-4.66 5 -5.32 5 -6 5 C-5 2 -5 2 -3 0.8125 C-1 0 -1 0 0 0 Z " fill="#E8582D" transform="translate(85,29)"/>
<path d="M0 0 C5.75 -0.125 5.75 -0.125 8 1 C8 1.99 8 2.98 8 4 C5.36 3.67 2.72 3.34 0 3 C0 2.01 0 1.02 0 0 Z " fill="#E2E2E2" transform="translate(378,52)"/>
<path d="M0 0 C0.99 0 1.98 0 3 0 C3 1.98 3 3.96 3 6 C1.68 6 0.36 6 -1 6 C-1.042721 4.33388095 -1.04063832 2.66617115 -1 1 C-0.67 0.67 -0.34 0.34 0 0 Z " fill="#FBC639" transform="translate(71,43)"/>
<path d="M0 0 C1.5 1.3125 1.5 1.3125 3 3 C3 3.99 3 4.98 3 6 C1.35 6 -0.3 6 -2 6 C-1.125 1.125 -1.125 1.125 0 0 Z " fill="#F9C43A" transform="translate(32,64)"/>
<path d="M0 0 C0.66 0.33 1.32 0.66 2 1 C2 1.66 2 2.32 2 3 C1.34 3 0.68 3 0 3 C0.33 4.32 0.66 5.64 1 7 C0.01 7.66 -0.98 8.32 -2 9 C-2.125 5.625 -2.125 5.625 -2 2 C-1.34 1.34 -0.68 0.68 0 0 Z " fill="#E8572E" transform="translate(58,85)"/>
<path d="M0 0 C5.875 1.875 5.875 1.875 7 3 C7.04080783 4.99958364 7.04254356 7.00045254 7 9 C6.71125 8.38125 6.4225 7.7625 6.125 7.125 C5.06279958 4.86674235 5.06279958 4.86674235 3 3 C0.42938689 2.35232207 0.42938689 2.35232207 -2 2 C-1.34 1.34 -0.68 0.68 0 0 Z " fill="#F7BB42" transform="translate(28,52)"/>
<path d="M0 0 C0.86625 0.3403125 0.86625 0.3403125 1.75 0.6875 C0.1 1.3475 -1.55 2.0075 -3.25 2.6875 C-3.25 4.0075 -3.25 5.3275 -3.25 6.6875 C-3.91 6.6875 -4.57 6.6875 -5.25 6.6875 C-5.58 5.3675 -5.91 4.0475 -6.25 2.6875 C-2.80384615 -0.38942308 -2.80384615 -0.38942308 0 0 Z " fill="#E95B2E" transform="translate(31.25,35.3125)"/>
<path d="M0 0 C1.65 0 3.3 0 5 0 C5 1.32 5 2.64 5 4 C3.35 4 1.7 4 0 4 C0 2.68 0 1.36 0 0 Z " fill="#181818" transform="translate(162,41)"/>
<path d="M0 0 C1.32 0.66 2.64 1.32 4 2 C3.67 2.99 3.34 3.98 3 5 C1.35 5.33 -0.3 5.66 -2 6 C-1.34 4.02 -0.68 2.04 0 0 Z " fill="#E35028" transform="translate(63,91)"/>
<path d="M0 0 C0.99 0.33 1.98 0.66 3 1 C3 1.66 3 2.32 3 3 C3.66 3 4.32 3 5 3 C5 3.99 5 4.98 5 6 C4.01 6 3.02 6 2 6 C1.67 5.34 1.34 4.68 1 4 C0.01 3.67 -0.98 3.34 -2 3 C-1.34 2.01 -0.68 1.02 0 0 Z " fill="#F9C244" transform="translate(93,50)"/>
<path d="M0 0 C0.33 1.32 0.66 2.64 1 4 C-1.31 4.33 -3.62 4.66 -6 5 C-5.34 4.67 -4.68 4.34 -4 4 C-4 3.34 -4 2.68 -4 2 C-2.68 1.34 -1.36 0.68 0 0 Z " fill="#EA5D2F" transform="translate(47,30)"/>
<path d="M0 0 C0.99 0 1.98 0 3 0 C3 1.65 3 3.3 3 5 C1.68 4.67 0.36 4.34 -1 4 C-0.67 2.68 -0.34 1.36 0 0 Z " fill="#F8BD39" transform="translate(53,88)"/>
<path d="M0 0 C0.33 0 0.66 0 1 0 C1.66 2.64 2.32 5.28 3 8 C0.03 7.505 0.03 7.505 -3 7 C-2.01 4.69 -1.02 2.38 0 0 Z " fill="#F8C153" transform="translate(85,64)"/>
<path d="M0 0 C0.99 0 1.98 0 3 0 C2.67 1.32 2.34 2.64 2 4 C0.68 4.33 -0.64 4.66 -2 5 C-1.125 1.125 -1.125 1.125 0 0 Z " fill="#FBC536" transform="translate(73,21)"/>
<path d="M0 0 C1.32 0 2.64 0 4 0 C3.67 1.65 3.34 3.3 3 5 C2.01 5 1.02 5 0 5 C0 3.35 0 1.7 0 0 Z " fill="#FBC536" transform="translate(56,54)"/>
</svg>
